/* XPM */
static char * enemy_right_xpm[] = {
"50 50 53 1",
" 	c #676D75",
".	c #697078",
"+	c #696E78",
"@	c #636B72",
"#	c #697077",
"$	c #6F757B",
"%	c #6F747C",
"&	c #6C737C",
"*	c #777D86",
"=	c #737A83",
"-	c #616672",
";	c #545B64",
">	c #4D535C",
",	c #565C69",
"'	c #61686F",
")	c #686E77",
"!	c #5C646C",
"~	c #5E686F",
"{	c #60676F",
"]	c #6D7379",
"^	c #787F86",
"/	c #646878",
"(	c #515663",
"_	c #656A75",
":	c #798087",
"<	c #727782",
"[	c #5E6471",
"}	c #5B5F70",
"|	c #595E6B",
"1	c #6F7480",
"2	c #71777F",
"3	c #586067",
"4	c #747A83",
"5	c #4A5057",
"6	c #51585F",
"7	c #585F67",
"8	c #4E5362",
"9	c #D82800",
"0	c #71787F",
"a	c #6B727C",
"b	c #6B6F7D",
"c	c #70747B",
"d	c #50575F",
"e	c #494F5D",
"f	c #51F0F6",
"g	c #FC9838",
"h	c #464B5B",
"i	c #454A54",
"j	c #3E434E",
"k	c #414654",
"l	c #5F6870",
"m	c #666D78",
"n	c #7B8289",
" .+@.#.$@ %%&%%*=-;>,'@ .).....$.... -!~~@~~{-@@@@",
" %@#.).]@.&&%=*^/(;!@@ ............. _!@ ~~~~@@@@ ",
")@@.#)#) %%%=^:*/;~@@_ .......$$].%$.-~ @!!~{-@@@ ",
"- .##)]'.%%%*:<[,;@@@ .....%%%%%%.%. ~ )~!!~@@@@ _",
"#...)##@&%%=^+},;~@@@ %]...%%%%%%%].- )-!!~~~@@-~@",
") )#)#)@&%=*+|;,@@@  .%%%.]%%%%1%%2+_-!|3!!~~@@| .",
"   )##) =4%-;;!@@@ .%..%%%%%11%%%2+,>>56!!~~~@!~))",
"    .]@.1/|;!@@@  .]%%]%%%%=====2-(6;;;7!!~~'!(@ )",
"   )]])[[,,~@@@@ ..%]%%%1=11=%==@6;,,,7!,,,|;8;   ",
"@  #]$-;;7~@@99 ...99%%0=====04/;,,,,,~!;;;((!@   ",
"@ )]$+,!~@@@@99#.a.99%%====%2=b,;,,,,!@@@@@@@@@@@@",
"@@#]c[,~-@@@@9999..99990=9999|;;,,773~@@@@@@@@@@@@",
" )$]_|7@@@@@-9999,,9999-&9999d;!!!|!~@@@@@@@@@@@@ ",
"]+_|((,||![[,99999999999999;!!!!!!!~@@-{@@@@@@@@ #",
"|;88(;,7,;;;;99999999999999!!!!!!!~~~@{{@@@'@@@).)",
"e>8(;!~@{~!9999999999ffff99999999~~~~~{{{@@@ ))@|(",
"!!!!~@@@[[@9999999999ffff99999999~~~~~~{@@)#_!;8;,",
"@@@@@@@@@@@999999ggffffffffff9999~~@@@@99@!;8>d!@@",
"@@@@@@@@@@@999999ggffffffffff9999~!|,,|998e>!~~@@@",
"@@@@  @'@99gg999999ff999999ff99{!8ehijk99;7~@@@@@@",
"@@@  @~~!99gg999999ff999999ff99-{(8ei5599@@@@@@@@@",
"  @ @~~,,999999gg9999ff999999ff9999999999@@@@@@@@ ",
"   @~~;!~999999gg9999ff999999ff9999999999@@@@@@   ",
").@~~!;~~gg9999999999ffffffffff9999999999@@_@@    ",
"# ~l@,,~~gg9999999999ffffffffff9999999999@@       ",
"@~@@@;!~!gg9999999999ffffffffff9999999999@@  @l@@@",
"@@ -|!~~~gg9999999999ffffffffff9999999999@@@@@l~~@",
"@ -7!~~~~999999gg9999ff999999ff9999999999'@@@@@l@@",
"l@!!~~{~~999999gg9999ff999999ff9999999999~@@@@l'll",
"l@!@{'~~~99gg999999ff999999ff993~'@@@@@99@@@@l@@@@",
"@ -@@@@@@99gg999999ff999999ff99~   @@@@99@@@@@l@@@",
" ]@@@@@@@@@999999ggffffffffff9999@@ @@@99@@@@@@@@@",
"#+!@@@@@@@@999999ggffffffffff9999@@  @@99@''@@@@''",
"@!@        9999999999ffff99999999@    @@  @@@@@@  ",
"~@        .9999999999ffff99999999     @@@@ @ )#.%]",
"    ))    $-;99999999999999       @    )  ).++)+_~",
"   .).....],,99999999999999          # ))_[--[~_@ ",
"....)...]=m(!9999@@9999~~9999      )-!~!!@_...%%.)",
".....]%=4+;d!9999@@9999~{9999  @ . !!_....&%%&%..#",
"...%2*^=-,!,!99  @@99@ @{    !(888(!....]..%%.].).",
"2=*^^*=!,{{;@99+)) 99 @'~  -;e8||;~ ....%]%.%%..$2",
"^42]_!|,'@~;+......   @@,;(>>;@   .....%%%%%1%.=*^",
"&|;!~~{@@@~!.&aa... @@@@;;>7{@    ...a%%%%<==&.=::",
",d!@@@@@@@!.%%%%.  @@ ]!|@'@@     ..m.&%%1==%a%*4&",
"!~@@@@@@@|@%%1%%)   )]](~@@@@   ).).]%%%%=**==2_|;",
"@@@@@@@@!~%==%]#)))..%+8~@@@@   ..]%%%%=*^n*.-;(,~",
"@@    @!~%===# ......0_8~@@@@@_ __-!8(;(;|[|(;3~-@",
"@@   -!~%12$  a.....]=m8;,,;;8e88(88;~!;3,;,|~~~-@",
"@'@@{{.%=$)'+.&.&].%=.,>,!!!;(!@     @!!~~@__~~{'@",
"@@  {.%%$){ .&&%%=4=-8>! _-[_).....) {;~~@ ~~~~~@@"};
