/* XPM */
static char *bca809e46b8c4400a2530780f036386amoBlxcaQy5IED1Xz[] = {
/* columns rows colors chars-per-pixel */
"50 50 58 1 ",
"  c #3E434E",
". c #414654",
"X c #454A54",
"o c #464B5B",
"O c #494F5D",
"+ c #4A5057",
"@ c #4D535C",
"# c #50575F",
"$ c #51585F",
"% c #4E5362",
"& c #515663",
"* c #545B64",
"= c #585F67",
"- c #565C69",
"; c #595E6B",
": c #5B5F70",
"> c #586067",
", c #5C646C",
"< c #5E686F",
"1 c #5E6471",
"2 c #5F6870",
"3 c #60676F",
"4 c #61686F",
"5 c #616672",
"6 c #636B72",
"7 c #656A75",
"8 c #666A77",
"9 c #646C74",
"0 c #666C74",
"q c #676D75",
"w c #686E77",
"e c #646878",
"r c #666D78",
"t c #696E78",
"y c #6B6F7D",
"u c #697077",
"i c #697078",
"p c #6B737B",
"a c #6D7379",
"s c #6C747B",
"d c #6F757B",
"f c #6B727C",
"g c #6C737C",
"h c #6F747C",
"j c #6F777F",
"k c #70747B",
"l c #71777F",
"z c #71787F",
"x c #6F7480",
"c c #6F7780",
"v c #727782",
"b c #737A83",
"n c #747A83",
"m c #757C84",
"M c #777D86",
"N c #787F86",
"B c #798087",
"V c #7B8289",
/* pixels */
"qit6iuid6qhhghhMb5*@-46qiwiiiiidiiiiq5,<<6<<356666",
"qh6uiwia6igghbMNe&*,66qiiiiiiiiiiiiiq7,6q<<<<6666q",
"w66iuwuwqhhhbNBMe*<667qiiiiiiiddaihdi5<q6,,<35666q",
"5qiuuwa4ihhhMBv1-*666qiiiiihhhhhhihiq<qw<,,<6666q7",
"uiiiwuu6ghhbNt:-*<666qhaiiihhhhhhhai5qw5,,<<<665<6",
"wqwuwuw6ghbMt;*-666qqihhhiahhhhxhhlt75,;>,,<<66;qi",
"qqqwuuwqbnh5**,666qihiihhhhhxxhhhlt-@@+$,,<<<6,<ww",
"qqqqia6ixe;*,666qqiahhahhhhbbbbbl5&$***=,,<<4,&6qw",
"qqqwaaw11--<6666qiihahhhxbxxbhbb6$*---=,---;*%*qqq",
"6qquad5**=<6666qiiihhhhzbbbbbzne*-----<,***&&,6qqq",
"6qwadt-,<66666quifihhhhbbbbhlby-*----,666666666666",
"66uak1-<56666qtrriifihbzbbbg5;**--==><666666666666",
"qwda7;=6666651;-;---=;15gg5*@#*,,,;,<666666666666q",
"at7;&&-;;,11-#$**$*---*@*%+*,,,,,,,<665366666666qu",
";*%%&*-=-****,<,,=,,-=,;&%,,,,,,,,<<<6336664666wiw",
"O@%&*,<63<,,<<<,,,,,,,,,&-,,,,,,,<<<<<333666qww6;&",
",,,,<66611666<,,,,,,,,,*%,,<<<,<<<<<<<<366wu7,*%*-",
"666666666666,;,,,,,<<,%%;<<<<<<<<<<66666q6,*%@#,66",
"66666666666,*,,,,<<<<*@,<<<<<<<<,<,;--;;*%O@,<<666",
"6666qq646<,*,,<<<<<<<*-<<<563333,%OoX .oO*=<666666",
"666qq6<<,-*,<,<<<<66<%,3666666653&%OX++*,666666666",
"qq6q6<<-->,<<<<<<<66-%<4366666655-++@@*<666666666q",
"qqq6<<*,<<<<<666666<-%<666666666,+@@@*<26666666qqq",
"wi6<<,*<<<<666643<,-*@3666666651&@$#-<26666766qqqq",
"uq<26--<<<,<<<,,,,--%@,,,,;;;-&%+@$*<466666qqqqqqq",
"6<666*,<,,,,,,,,,-*%oXOO@@++++@@#**,4666666qq62666",
"66q5;,<<<,,<,<,,;%o. X@****----***-<66666666662<<6",
"6q5=,<<<<<<<<<<;%X.X@->=-===------<6666qq466666266",
"26,,<<3<<<<<<4,@@*->,,,,,>,,,,=-=<6666666<66662422",
"26,634<<<66646&$,,,,,,,,,,,,,,=><46666666666626666",
"6q5666666466q1&>,,,,,,,,,,,,,,,<qqq666666666662666",
"qa666666666ui*-,,,,,,,,<,,,,,,46q66q66666666666666",
"ut,66666666d7*,,,,,<<<<<<<<<<6qq666qq666q644666644",
"6,6qqqqqqqqh;-,,,<<<<<<,,<<36qqqq6qqqq66qq666666qq",
"<6qqqqqqqqit&,<<<<<<<<,,=,36qqqqqqqqqq6666q6qwuiha",
"qqqqwwqqqqd5*<<<<<<<<,,,,*6qqqqqqq6qqqqwqqwittwt7<",
"qqqiwiiiiia--<<6666<<<<<,6qqqqqqqqqqquqww71551<76q",
"iiiiwiiiabr&,6666666<<<<<qqqqqqqqqqw5,<,,67iiihhiw",
"iiiiiahbnt*#,q667666646<3qqqqqq6qiq,,7iiiighhghiiu",
"iiihlMNb5-,-,qqqq66666q63qqqq,&%%%&,iiiiaiihhiaiwi",
"lbMNNMb,-33*6tttwwqqqq64<qq5*O%;;*<qiiiihahihhiidl",
"Nnla7,;-46<*tiiiiiiqqq66-*&@@*6qqqiiiiihhhhhxhibMN",
"g;*,<<3666<,igffiiiq6666**@=36qqqqiiifhhhhvbbgibBB",
"-#,6666666,ihhhhiqq66qa,;6466qqqqqiirighhxbbhfhMng",
",<6666666;6hhxhhwqqqwaa&<6666qqqwiwiahhhhbMMbbl7;*",
"66666666,<hbbhauwwwiiht%<6666qqqiiahhhhbMNVMi5*&-<",
"66qqqq6,<hbbbuqiiiiiiz7%<666667q775,%&*&*;1;&*><56",
"66qqq5,<hxldqqfiiiiiabr%*--**%O%%&%%*<,*>-*-;<<<56",
"646633ihbdw4tigigaihbi-@-,,,*&,6qqqqq6,,<<677<<346",
"66qq3ihhdw3qigghhbnb5%@,q7517wiiiiiwq3*<<6q<<<<<66"
};
