/* XPM */
static char *b6c519977ab1492cad890e08534917b37WtrNFr21ImGzeXm[] = {
/* columns rows colors chars-per-pixel */
"50 50 190 2 ",
"   c #040404",
".  c #0B0903",
"X  c #080806",
"o  c #0A0B0B",
"O  c #170604",
"+  c #110D02",
"@  c #1A1501",
"#  c #191406",
"$  c #0E0F11",
"%  c #0F1111",
"&  c #131414",
"*  c #161718",
"=  c #17191C",
"-  c #181A1C",
";  c #350605",
":  c #251D01",
">  c #241B07",
",  c #292103",
"<  c #362B05",
"1  c #3C3107",
"2  c #262218",
"3  c #362516",
"4  c #382718",
"5  c #392919",
"6  c #3F3612",
"7  c #1B1D20",
"8  c #222423",
"9  c #262824",
"0  c #2B2B25",
"q  c #26292C",
"w  c #2C2E29",
"e  c #363429",
"r  c #272A31",
"t  c #2A2E32",
"y  c #2E3134",
"u  c #343532",
"i  c #33363B",
"p  c #35393D",
"a  c #3C3B3C",
"s  c #510C0A",
"d  c #483A09",
"f  c #4C2815",
"g  c #542218",
"h  c #463614",
"j  c #443B23",
"k  c #403F31",
"l  c #643132",
"z  c #564401",
"x  c #554407",
"c  c #594814",
"v  c #634D04",
"b  c #665106",
"n  c #6D5504",
"m  c #6F5804",
"M  c #745C05",
"N  c #73520F",
"B  c #725C0E",
"V  c #7A5A0B",
"C  c #644A11",
"Z  c #7A5912",
"A  c #7C6205",
"S  c #7F660A",
"D  c #7B6312",
"F  c #594D2C",
"G  c #4B453C",
"H  c #6A5926",
"J  c #635834",
"K  c #6F6437",
"L  c #716636",
"P  c #746A3E",
"I  c #363A40",
"U  c #393E44",
"Y  c #3B4145",
"T  c #3E4349",
"R  c #444444",
"E  c #4B4643",
"W  c #41454A",
"Q  c #42484E",
"!  c #4E4C4B",
"~  c #504D4B",
"^  c #52534B",
"/  c #464B53",
"(  c #494F55",
")  c #4A5157",
"_  c #4C535B",
"`  c #51565D",
"'  c #595B5E",
"]  c #676249",
"[  c #726944",
"{  c #7D7247",
"}  c #68685A",
"|  c #4F5561",
" . c #515662",
".. c #555B65",
"X. c #595F66",
"o. c #575D68",
"O. c #585F69",
"+. c #5C646C",
"@. c #5E686F",
"#. c #5F6570",
"$. c #5F6970",
"%. c #60676F",
"&. c #61686F",
"*. c #616771",
"=. c #646B73",
"-. c #666D75",
";. c #686E77",
":. c #676C79",
">. c #696F78",
",. c #697077",
"<. c #697078",
"1. c #6B717A",
"2. c #6C727A",
"3. c #6D737A",
"4. c #6E747B",
"5. c #6F747C",
"6. c #797771",
"7. c #70767E",
"8. c #981A17",
"9. c #A91716",
"0. c #B81C16",
"q. c #982D16",
"w. c #A32212",
"e. c #BD2B16",
"r. c #B62E2B",
"t. c #C71919",
"y. c #C12816",
"u. c #C23A13",
"i. c #E13416",
"p. c #D32A2B",
"a. c #9A4D0D",
"s. c #866A09",
"d. c #9C6D09",
"f. c #967506",
"g. c #9B7A06",
"h. c #9D7A09",
"j. c #8B6C14",
"k. c #906A17",
"l. c #9A7710",
"z. c #A76F09",
"x. c #A17E02",
"c. c #A5780A",
"v. c #856E24",
"b. c #D14413",
"n. c #917D4D",
"m. c #D26F5C",
"M. c #E97272",
"N. c #A58202",
"B. c #A98506",
"V. c #AE8A04",
"C. c #B28C03",
"Z. c #B79002",
"A. c #BD9504",
"S. c #AC8A1D",
"D. c #C09702",
"F. c #C39A02",
"G. c #CA9F02",
"H. c #CEA100",
"J. c #D3A602",
"K. c #DCAB03",
"L. c #F7A905",
"P. c #E4B301",
"I. c #EAB701",
"U. c #ECBA01",
"Y. c #F2BE01",
"T. c #F1BF09",
"R. c #DBB42B",
"E. c #F5C102",
"W. c #FCC600",
"Q. c #F3C624",
"!. c #9B8653",
"~. c #AE9A56",
"^. c #88827A",
"/. c #C7B577",
"(. c #FCDD70",
"). c #6F7680",
"_. c #717780",
"`. c #747A83",
"'. c #938A81",
"]. c #9B938B",
"[. c #BABCBC",
"{. c #D39494",
"}. c #E49796",
"|. c #CBBF94",
" X c #F4DD89",
".X c #F9E6B9",
"XX c #E5C0C0",
"oX c #F9E7C2",
"OX c #F0EDE1",
"+X c #F8F3F2",
/* pixels */
";.<.;.-.;.,.<.2.-.;.2.5.2.5.7.`.5.#... .O.%.=.-.>.;.<.<.<.<.<.2.<.<.<.<.-.*.@.@.*.*.@.@.%.*.*.=.=.=.",
";.<.-.-.<.;.<.<.-.<.2.5.5.`.`.`.:.O.o.+.*.*.-.;.<.<.<.<.<.<.<.<.<.<.<.<.-.*.@.*.=.$.@.@.@.*.=.=.=.-.",
"-.-.-.;.,.;.,.;.;.2.5.5.`.`.`._.*.O.@.*.=.=.-.<.<.<.<.<.<.<.2.4.2.<.2.2.;.*.*.-.*.@.@.@.*.*.*.*.=.-.",
"=.-.;.,.,.;.,.=.<.2.5.7.`.`.5.*.O.O.*.*.=.-.<.<.<.<.<.2.2.4.5.5.2.2.2.<.-.*.-.-.$.@.@.@.*.*.*.*.=.=.",
";.;.<.<.;.,.;.-.<.5.7.`.`.<.#.O.O.@.*.=.=.;.2.2.<.<.<.2.5.5.5.5.5.4.2.>.=.=.=.*.@.@.@.@.@.*.*.*.*.=.",
";.;.;.;.;.,.-.-.2.7.`._.;.+.O.+.@.*.=.-.;.<.2.5.2.<.2.5.5.5.5.5.5.5.2.-.*.@.+.O.+.@.@.@.@.*.*.@.=.;.",
"-.-.-.;.,.,.-.;.7._.<.*.+.O.+.*.*.=.-.<.2.<.<.5.5.4.5.7.7.7.7.7.5.2.=.O. .` ` ..+.@.@.@.@.@.@.@.-.;.",
"-.-.-.;.<.<.-.;.<.=.+.+.+.&.*.*.-.-.,.2.4.2.2.5.5.5.5._.`.`.`.`.2.*.o. . . ...o.+.+.@.@.@.+.O.*.-.;.",
"-.-.-.;.2.2.=.*.#.O.O.@.*.=.=.-.;.<.<.2.4.5.5.5._.`._._.`.7.`.5.*.O...o.O.O.+.+.O.O.O.O.o...+.=.-.-.",
"=.-.-.,.2.2.*.O.O.+.@.*.*.} [ ^ W X.<.2.5.5.7.7.`.`.`.`.`.`._.=._ I E ] ] O.@.@.+.o.o...o.+.*.-.-.-.",
"=.-.;.2.2.-.+.+.@.*.*.*.=.P s.1 o W <.2.5.5.7.`.`.`.`.7.5.5.:.+.U X < S L +.*.*.*.*.*.&.*.*.=.=.=.=.",
"=.-.,.2.2.*.+.@.*.*.*.} [ H C j i ` -.>.;.<.5.5.`.`.).>.*.+.O.o./ t e C H P } *.=.*.*.*.=.=.=.*.*.*.",
"-.;.<.;.*.O.+.@.*.*.*.[ s.c 4 E o.O.O.O.+.+.@.*.-.-.%.X. . .o.+.+.X.E 4 c s.P &.*.*.*.*.*.*.*.*.=.-.",
";.=.*.+... .O.+.+.` E v.A.n > a o... .U t a G J K K J G a y U o.@.@.R # b A.v.E ' =.*.*.*.*.*.=.-.;.",
"O.o. . . ...O.+.+.! 4 j.T.A . i +.o.` 8 . 2 h Z j.j.D h 3 + 8 ` +.@.U . M T.l.5 ~ =.*.*.*.=.=.-.-.=.",
"|  . . .o.+.@.*.#.! 4 n. X{ . p +.Y w 6 x s.S./.|.|./.S.x.f.B e U +.U   [  X!.5 ! =.=.=.=.-.=.*.+.O.",
"+.+.+.@.@.*.*.*.*.! 4 '.+X^.# p ` w @ v f.J.Q..X+X+XoXQ.Y.W.Z.: 9  .Y # 6.+X].4 ~ =.-.=.*.+.o.o.o.O.",
"*.*.*.*.*.*.*.*.=.~ 4 '.+X/.g.c 0 B x.D.G.f.k.m.M.M.m.k.c.Y.P.N.B w c g./.+X].4 ! *.+.o... .o.+.%.*.",
"*.*.=.=.=.=.*.*.-.! 3 ^.OX(.E.A : N.W.E.K.N g 9.t.p.r.g C K.E.W.V.: m E.(.OX'.3 R  .|  .+.@.@.*.*.*.",
"*.*.=.=.-.-.*.&.*.W + F ~.R.W.H.V.K.Y.c.Z q.8.s l {.}.r.q.Z h.Y.P.C.G.W.R.~.J + i o.O.@.*.=.*.*.*.*.",
"=.=.=.-.-.*.$.@.@.U o 1 M Z.Y.Y.E.W.U.V f 9.t.; 8 [.XXp.0.f B U.W.E.Y.Y.A.A d o U *.*.=.=.=.=.*.*.=.",
"-.-.=.-.*.$.@.+.+._ Q e , b B.B.V.K.E.h.N e.0.; o p l t.y.N f.Y.P.V.B.B.m , e Q o.*.=.*.=.=.*.=.=.-.",
"-.-.-.=.$.@.+.+.@.@.@.U & d M M A D.I.C.d.u.0.s O O ; 0.u.d.C.I.F.A M M d % p @.*.*.*.*.=.=.=.-.-.-.",
";.-.=.*.@.+.o.@.@.@.@.o.) e : @ : M B.H.K.z.a.w.9.9.w.a.z.K.J.B.M , @ : w / ..*.*.*.*.=.=.=.-.-.-.-.",
";.-.*.*.*.+.+.@.@.@.@.@.@.I % $ & d A D.I.C.z.b.i.i.b.z.V.P.G.A d & o $ i @.*.=.*.*.=.-.-.-.-.-.-.-.",
"*.*.*.*.&.+.+.@.@.@.@.@.@. .) ) / 0 : M B.J.I.L.L.L.L.I.K.B.M : 2 W / ) ..*.*.*.*.*.=.-.-.=.*.*.=.=.",
"*.*.=.*.+.+.@.@.@.@.@.@.@.@.@.+. .r & d M C.J.P.U.U.P.J.C.M x * r  .+.@.*.=.=.=.=.*.=.=.=.=.*.$.*.=.",
"*.=.*.+.+.@.@.@.@.@.@.@.@.@.@.O.| / U 2 @ : < A f.f.s.< : @ 2 Q _ O.@.*.*.*.=.-.=.*.=.=.=.=.*.*.*.*.",
"*.*.@.@.@.@.@.@.@.@.$.@.$.*.+./ T _ | r &   . b s.h.s.@   & r  .+.@.*.*.=.=.*.=.*.*.=.=.=.*.*.*.*.*.",
"*.*.@.*.%.@.@.@.$.*.*.*.*.*. .r & Y +.o.( = + b g.K.D.: & /  .+.@.*.*.*.=.*.*.*.*.*.=.=.=.*.*.*.*.*.",
"=.-.*.*.*.*.*.*.*.*.*.=.=.+. .q   k ] ^ Y & + b g.U.H.: * ` @.@.=.-.-.=.=.=.=.*.=.=.=.=.=.*.*.=.*.*.",
";.,.*.*.*.*.*.*.*.*.=.;.-.+...q X x D < X   + b g.I.H.: * ` *.*.-.=.=.-.=.=.=.=.=.=.=.=.=.=.=.=.=.*.",
";.-.*.*.=.=.=.=.=.=.-.<.*.O.O.U 8 h z z z z v g.A.Y.H.: = ..-.-.=.*.=.-.-.=.*.=.-.=.*.*.*.*.*.*.*.*.",
"*.*.*.-.-.-.-.-.-.-.;.>.+.O.+.+.` q @ x.U.U.U.E.E.W.H.: = X.;.-.-.=.-.-.-.-.*.*.-.-.=.=.=.=.=.=.-.-.",
"*.*.-.-.-.-.-.-.-.-.<.=.O.+.@.@.+.Y w D g.g.N.D.K.E.H.: = X.;.-.-.-.-.-.-.-.=.=.=.=.-.-.-.-.;.;.2.,.",
"-.-.-.-.;.;.-.-.-.;.<.*.O.@.@.@.@.@...9 . . @ m h.U.H.: - X.;.-.-.-.-.-.-.-.-.-.-.-.-.-.-.-.-.;.-.=.",
"-.-.;.;.;.>.<.;.<.<.;.+.O.@.$.*.*.=.@.Y q o + b g.U.H.: = X.;.-.-.-.-.-.-.-.-.-.-.=.*.=.=.*.=.-.-.-.",
"<.<.<.<.;.<.<.<.4.5.=.o.+.*.*.*.*.*.=.*...7 + b g.I.G., - X.;.-.-.-.-.=.*.*.*.*.*.=.=.;.<.<.<.2.;.;.",
"<.<.<.<.<.4.7.`.5.-.+...+.=.=.=.=.*.*.*.@.T u 6 d M B k W +.*.*.*.=.*.@.@.=.-.-.-.;.<.2.2.2.2.<.<.,.",
"<.<.2.5.`.`.`.5.=.+.+.O.@.-.-.-.-.=.=.=.*.*...-     * ..*.+... .....O.@.-.;.<.<.2.<.<.2.2.2.2.<.<.<.",
"_.`.`.`.`.`.5.*.+.@.@.+.*.;.>.;.;.-.-.-.-.-.@.W p I T o.o. . .O.O.O.@.-.;.<.<.<.2.2.2.2.2.2.<.<.5.7.",
"`.7.5.<.-.*.@.+.@.*.@.+.=.<.<.<.<.<.;.-.-.-.=.*.+.O... . .o.@.=.=.=.-.<.<.<.<.2.5.5.5.5.5.2.<.`.`.`.",
">.@.+.@.*.@.@.*.*.*.@.@.;.2.<.<.<.<.;.-.=.=.=.*.O.o. .X.@.*.-.-.-.-.<.<.<.<.2.5.5.5._.`._.2.2.`.`.`.",
"+.o.+.*.*.*.*.=.*.*.&.-.2.2.2.2.<.;.-.=.=.;.;.@.+.@.@.*.*.-.-.-.-.;.;.<.>.<.2.5.5._.`.`.7.5.5.`.7.<.",
"@.@.*.*.=.*.=.=.*.@.=.2.7.5.5.2.>.-.-.-.;.2.;.O.@.*.*.*.=.-.-.-.;.;.<.<.2.4.5.7.7.`.`.`.`.5.<.=.+.+.",
"*.*.*.=.=.=.*.*.@.*.2.`.`.5.2.<.;.;.;.;.<.2.=.O.@.*.*.*.=.-.-.-.;.>.<.<.>.>.<.2.7.`.`._.>.*.+.O.O.@.",
"*.=.-.-.-.=.*.@.*.<.`.`.7.<.;.<.<.<.<.<.<.5.=...+.*.*.*.*.*.*.*.*.*.*.+.O.O.O.O.+.@.*.+.O.O.+.@.#.*.",
"*.*.-.-.=.*.*.*.<.5.5.2.<.;.<.<.<.<.<.<.4.5.=. .o.O.+.O.o. . ...o.O.o...o.+.+.o.o.O.O.O.+.@.@.@.*.*.",
"*.*.=.=.*.*.;.4.7.4.;.-.;.<.<.<.2.2.2.5.5.-.O. .O.+.+.+.o...+.*.*.*.*.*.*.*.@.+.@.@.*.*.*.$.@.@.*.*.",
"*.=.-.=.*.-.4.7.5.,.*.-.<.<.2.2.5.`.`._.=... .+.*.*.*.#.*.=.-.;.<.<.>.;.-.%.+.@.@.*.=.*.$.@.@.@.*.*."
};
