/* XPM */
static char * link_left_xpm[] = {
"50 50 52 1",
" 	c #676D75",
".	c #697078",
"+	c #696E78",
"@	c #636B72",
"#	c #697077",
"$	c #6F757B",
"%	c #6F747C",
"&	c #6C737C",
"*	c #777D86",
"=	c #737A83",
"-	c #616672",
";	c #545B64",
">	c #4D535C",
",	c #565C69",
"'	c #61686F",
")	c #686E77",
"!	c #5C646C",
"~	c #5E686F",
"{	c #60676F",
"]	c #6D7379",
"^	c #787F86",
"/	c #646878",
"(	c #515663",
"_	c #80D010",
":	c #656A75",
"<	c #798087",
"[	c #727782",
"}	c #5E6471",
"|	c #5B5F70",
"1	c #C84C0C",
"2	c #595E6B",
"3	c #71777F",
"4	c #586067",
"5	c #747A83",
"6	c #4A5057",
"7	c #51585F",
"8	c #6F7480",
"9	c #FC9838",
"0	c #585F67",
"a	c #4E5362",
"b	c #70747B",
"c	c #666D78",
"d	c #50575F",
"e	c #494F5D",
"f	c #464B5B",
"g	c #454A54",
"h	c #3E434E",
"i	c #414654",
"j	c #5F6870",
"k	c #6B727C",
"l	c #7B8289",
"m	c #71787F",
" .+@.#.$@ %%&%%*=-;>,'@ .).....$.... -!~~@~~{-@@@@",
" %@#.).]@.&&%=*^/(;!@@________...... :!@ ~~~~@@@@ ",
")@@.#)#) %%%=^<*/;~@@:________$$].%$.-~ @!!~{-@@@ ",
"- .##)]'.%%%*<[},;@@@ ________%%%.%. ~ )~!!~@@@@ :",
"#...)##@&%%=^+|,11111111__________].- )-!!~~~@@-~@",
") )#)#)@&%=*+2;,11111111__________3+:-!24!!~~@@2 .",
"   )##) =5%-;;!@11111111__________+,>>67!!~~~@!~))",
"    .]@.8/2;!@111111111111____99______;0!!~~'!(@ )",
"   )]])}},,~@@111111111111____99______0!,,,2;a;   ",
"@  #]$-;;0~@@@111111111111____99______~!;;;((!@   ",
"@ )]$+,!~@@@@@ #1111111111119999________@@@@@@@@@@",
"@@#]b},~-@@@@ +c1111111111119999________@@@@@@@@@@",
" )$]:20@@@@@-}2,1111111111119999________@@@@@@@@@ ",
"]+:2((,22!11,d7;99__999911999999____@@__@@@@@@@@ #",
"2;aa(;,0,;11;!~!99__999911999999____~@__@@@'@@@).)",
"e>a(;!~@{~11~~~!99__999911999999____~~__{@@@ ))@2(",
"!!!!~@@@}}119999991199991199991111__~~~{@@)#:!;a;,",
"@@@@@@@@@@119999991199991199991111__@@@@ @!;a>d!@@",
"@@@@@@@@@@119999991199991199991111__,,22;ae>!~~@@@",
"@@@@  @'@~11!!~~999999999999111111efghife;0~@@@@@@",
"@@@  @~~!,11~!~~999999999999111111aeg66;!@@@@@@@@@",
"  @ @~~,,411~~~~99999999999911111166>>;~@@@@@@@@@ ",
"   @~~;!~~11~@@@99999999________!6>>>;~j@@@@@@@   ",
").@~~!;~~~11@@@'99999999________(>7d,~j@@@@:@@    ",
"# ~j@,,~~~11~~!!99999999________6>7;~'@@@@@       ",
"@~@@@;!~!!1199111111______________11'@@@@@@  @j@@@",
"@@ -2!~~~!1199111111______________11@@@@@@@@@@j~~@",
"@ -0!~~~~~1199111111______________11@@@  '@@@@@j@@",
"j@!!~~{~~~11991111______999999__111111@@@~@@@@j'jj",
"j@!@{'~~~@11991111______999999__111111@@@@@@@j@@@@",
"@ -@@@@@@'11991111______999999__111111@@@@@@@@j@@@",
" ]@@@@@@@@11.;1111______99999911111111@@@@@@@@@@@@",
"#+!@@@@@@@11:;1111______99999911111111@@ @''@@@@''",
"@!@       112,1111______99999911111111@@  @@@@@@  ",
"~@        11(!~~~~11______999911111111@@@@ @ )#.%]",
"    ))    11;~~~~~11______999911111111 )  ).++)+:~",
"   .).....11,~~@@@11______999911111111 )):}--}~:@ ",
"....)...]=11!@@@@@11111111____1111__-!~!!@:...%%.)",
".....]%=5+11! @@:@11111111____1111__!:....&%%&%..#",
"...%3*^=-,11!    @11111111____1111__....]..%%.].).",
"3=*^^*=!,{{;@+++))____________________..%]%.%%..$3",
"^53]:!2,'@~;+.....____________________.%%%%%8%.=*^",
"&2;!~~{@@@~!.&kk..____________________%%%%[==&.=<<",
",d!@@@@@@@!.%%%%.  @@ ]!11111111  ..c.&%%8==%k%*5&",
"!~@@@@@@@2@%%8%%)   )]](11111111).).]%%%%=**==3:2;",
"@@@@@@@@!~%==%]#)))..%+a11111111..]%%%%=*^l*.-;(,~",
"@@    @!~%===# ......m1111111111::-!a(;(;2}2(;4~-@",
"@@   -!~%83$  k.....]=1111111111a(aa;~!;4,;,2~~~-@",
"@'@@{{.%=$)'+.&.&].%=.1111111111     @!!~~@::~~{'@",
"@@  {.%%$){ .&&%%=5=-a>! :-}:).....) {;~~@ ~~~~~@@"};
