/* XPM */
static char * link_right_xpm[] = {
"50 50 50 1",
" 	c #676D75",
".	c #697078",
"+	c #696E78",
"@	c #636B72",
"#	c #697077",
"$	c #6F757B",
"%	c #6F747C",
"&	c #6C737C",
"*	c #777D86",
"=	c #737A83",
"-	c #616672",
";	c #545B64",
">	c #4D535C",
",	c #565C69",
"'	c #61686F",
")	c #686E77",
"!	c #5C646C",
"~	c #5E686F",
"{	c #60676F",
"]	c #6D7379",
"^	c #787F86",
"/	c #646878",
"(	c #515663",
"_	c #80D010",
":	c #656A75",
"<	c #798087",
"[	c #727782",
"}	c #5E6471",
"|	c #5B5F70",
"1	c #C84C0C",
"2	c #595E6B",
"3	c #71777F",
"4	c #586067",
"5	c #747A83",
"6	c #4A5057",
"7	c #51585F",
"8	c #6F7480",
"9	c #FC9838",
"0	c #585F67",
"a	c #4E5362",
"b	c #70747B",
"c	c #50575F",
"d	c #494F5D",
"e	c #464B5B",
"f	c #454A54",
"g	c #3E434E",
"h	c #5F6870",
"i	c #666D78",
"j	c #6B727C",
"k	c #7B8289",
" .+@.#.$@ %%&%%*=-;>,'@ .).....$.... -!~~@~~{-@@@@",
" %@#.).]@.&&%=*^/(;!________........ :!@ ~~~~@@@@ ",
")@@.#)#) %%%=^<*/;~@________..$$].%$.-~ @!!~{-@@@ ",
"- .##)]'.%%%*<[},;@@________%%%%%.%. ~ )~!!~@@@@ :",
"#...)##@&%%=^+|,__________11111111].- )-!!~~~@@-~@",
") )#)#)@&%=*+2;,__________111111113+:-!24!!~~@@2 .",
"   )##) =5%-;;!@__________11111111+,>>67!!~~~@!~))",
"    .]@.8/2;______99____111111111111;;;0!!~~'!(@ )",
"   )]])}},,~______99____111111111111,,0!,,,2;a;   ",
"@  #]$-;;0~@______99____111111111111,,~!;;;((!@   ",
"@ )]$+,!~@________9999111111111111,,,!@@@@@@@@@@@@",
"@@#]b},~-@________9999111111111111004~@@@@@@@@@@@@",
" )$]:20@@@________99991111111111112!~@@@@@@@@@@@@ ",
"]+:2((,22!__,c____999999119999__99!~@@11@@@@@@@@ #",
"2;aa(;,0,;__;!____999999119999__99~~~@11@@@'@@@).)",
"d>a(;!~@{~__~~____999999119999__99~~~~11{@@@ ))@2(",
"!!!!~@@@}}@@@~__111199991199991199999911@@)#:!;a;,",
"@@@@@@@@@@@@!2__111199991199991199999911 @!;a>c!@@",
"@@@@@@@@@@@!;!__111199991199991199999911;ad>!~~@@@",
"@@@@  @'@~!;!!~~111111999999999999defg11d;0~@@@@@@",
"@@@  @~~!,;!~!~~111111999999999999adf611!@@@@@@@@@",
"  @ @~~,,4!~~~~~11111199999999999966>>11@@@@@@@@@ ",
"   @~~;!~~~~~@@@@@________99999999>>>;11@@@@@@@   ",
").@~~!;~~~~@@@@'{~________999999997c,~11@@@:@@    ",
"# ~h@,,~~~!~~~!!!!________999999997;~'11@@@       ",
"@~@@@;!~!!!!!!11______________1111119911@@@  @h@@@",
"@@ -2!~~~!!~!~11______________1111119911@@@@@@h~~@",
"@ -0!~~~~~~~~~11______________1111119911 '@@@@@h@@",
"h@!!~~{~~~~~111111__999999______11119911@~@@@@h'hh",
"h@!@{'~~~@@@111111__999999______11119911@@@@@h@@@@",
"@ -@@@@@@'@@111111__999999______11119911@@@@@@h@@@",
" ]@@@@@@@@@#11111111999999______1111@@11@@@@@@@@@@",
"#+!@@@@@@@@$11111111999999______1111 @11 @''@@@@''",
"@!@        %11111111999999______1111  11  @@@@@@  ",
"~@        .+111111119999______11      11@@ @ )#.%]",
"    ))    $-111111119999______11  @   11  ).++)+:~",
"   .).....],111111119999______11     #11):}--}~:@ ",
"....)...]=i(!@__1111____11111111   )-!11!@:...%%.)",
".....]%=5+;c! __1111____11111111 . !!:11..&%%&%..#",
"...%3*^=-,!,! __1111____11111111aa(!..11]..%%.].).",
"3=*^^*=!,{{;____________________2;~ ....%]%.%%..$3",
"^53]:!2,'@~;____________________  .....%%%%%8%.=*^",
"&2;!~~{@@@~!____________________  ...j%%%%[==&.=<<",
",c!@@@@@@@!.%%%%. 11111111'@@     ..i.&%%8==%j%*5&",
"!~@@@@@@@2@%%8%%) 11111111@@@   ).).]%%%%=**==3:2;",
"@@@@@@@@!~%==%]#))11111111@@@   ..]%%%%=*^k*.-;(,~",
"@@    @!~%===# ...1111111111@@: ::-!a(;(;2}2(;4~-@",
"@@   -!~%83$  j...1111111111;adaa(aa;~!;4,;,2~~~-@",
"@'@@{{.%=$)'+.&.&]1111111111;(!@     @!!~~@::~~{'@",
"@@  {.%%$){ .&&%%=5=-a>! :-}:).....) {;~~@ ~~~~~@@"};
