/* XPM */
static char * link_down_xpm[] = {
"50 50 50 1",
" 	c #676D75",
".	c #697078",
"+	c #696E78",
"@	c #636B72",
"#	c #697077",
"$	c #6F757B",
"%	c #6F747C",
"&	c #6C737C",
"*	c #777D86",
"=	c #737A83",
"-	c #616672",
";	c #545B64",
">	c #4D535C",
",	c #565C69",
"'	c #61686F",
")	c #686E77",
"!	c #5C646C",
"~	c #5E686F",
"{	c #60676F",
"]	c #6D7379",
"^	c #787F86",
"/	c #646878",
"(	c #515663",
"_	c #656A75",
":	c #798087",
"<	c #727782",
"[	c #5E6471",
"}	c #5B5F70",
"|	c #595E6B",
"1	c #80D010",
"2	c #71777F",
"3	c #586067",
"4	c #747A83",
"5	c #4A5057",
"6	c #51585F",
"7	c #6F7480",
"8	c #585F67",
"9	c #4E5362",
"0	c #FC9838",
"a	c #6B727C",
"b	c #C84C0C",
"c	c #70747B",
"d	c #666D78",
"e	c #50575F",
"f	c #494F5D",
"g	c #414654",
"h	c #464B5B",
"i	c #5F6870",
"j	c #7B8289",
"k	c #71787F",
" .+@.#.$@ %%&%%*=-;>,'@ .).....$.... -!~~@~~{-@@@@",
" %@#.).]@.&&%=*^/(;!@@ ............. _!@ ~~~~@@@@ ",
")@@.#)#) %%%=^:*/;~@@_ .......$$].%$.-~ @!!~{-@@@ ",
"- .##)]'.%%%*:<[,;@@@ .....%%%%%%.%. ~ )~!!~@@@@ _",
"#...)##@&%%=^+},;~@@@ %]...%%%%%%%].- )-!!~~~@@-~@",
") )#)#)@&%=*+|;,@@@ 111111111111%%2+_-!|3!!~~@@| .",
"   )##) =4%-;;!@@@ .111111111111%2+,>>56!!~~~@!~))",
"    .]@.7/|;!@@@  1111111111111111(6;;;8!!~~'!(@ )",
"   )]])[[,,~@@@@ .1111111111111111;,,,8!,,,|;9;   ",
"@  #]$-;;8~@@@@ ..1111111111111111,,,,~!;;;((!@   ",
"@ )]$+,!~@@@@@00.a11bbbbbbbbbbbb11,,00@@@@@@@@@@@@",
"@@#]c[,~-@@@@ 00d.11bbbbbbbbbbbb118800@@@@@@@@@@@@",
" )$]_|8@@@@@-[00|,bbbbbbbbbbbbbbbb|!00@@@@@@@@@@@ ",
"]+_|((,||![[,e00;6bbbbbbbbbbbbbbbb!~00-{@@@@@@@@ #",
"|;99(;,8,;;;;!00!8bbbbbbbbbbbbbbbb~~00{{@@@'@@@).)",
"f>9(;!~@{~!!~~0000bb001100001100bb0000{{{@@@ ))@|(",
"!!!!~@@@[[@@@~0000bb001100001100bb0000~{@@)#_!;9;,",
"@@@@@@@@@@@@!|0000bb00bb0000bb00bb0000@@ @!;9>e!@@",
"@@@@@@@@@@@!;!0000bb00bb0000bb00bb0000||;9f>!~~@@@",
"@@@@  @'@~!;!!0000bb00bb0000bb00bb0000ghf;8~@@@@@@",
"@@@  @~~!,;!~!~~00000000000000000000bb5;!@@@@@@@@@",
"  @ @~~,,3!~~~~~00000000000000000000bb;~@@@@@@@@@ ",
"   @~~;!~~~~~@@@11110000bbbb00001111bb~i@@@@@@@   ",
").@~~!;~~~~@@@@'11110000bbbb00001111bbi@@@@_@@    ",
"# ~i@,,~~~!~~~!!11110000bbbb00001111bb@@@@@       ",
"@~@@@;!~!!!!bbbbbbbbbb000000001111bbbbbb@@@  @i@@@",
"@@ -|!~~~!!~bbbbbbbbbb000000001111bbbbbb@@@@@@i~~@",
"@ -8!~~~~~bbbb00bbbbbbbb111111111100bbbb '@@@@@i@@",
"i@!!~~{~~~bbbb00bbbbbbbb111111111100bbbb@~@@@@i'ii",
"i@!@{'~~~@bbbb00bbbbbbbb111111111100bbbb@@@@@i@@@@",
"@ -@@@@@@'bb000000bbbb00bbbb1111000000bb@@@@@@i@@@",
" ]@@@@@@@@bb000000bbbb00bbbb1111000000bb@@@@@@@@@@",
"#+!@@@@@@@bbbb00bbbbbb0011bbbbbbbb000000 @''@@@@''",
"@!@       bbbb00bbbbbb0011bbbbbbbb000000  @@@@@@  ",
"~@        bbbb00bbbbbb0011bbbbbbbb000000@@ @ )#.%]",
"    ))    bbbb00bbbbbb00bbbb1111111100 )  ).++)+_~",
"   .).....bbbb00bbbbbb00bbbb1111111100 ))_[--[~_@ ",
"....)...]=bbbbbbbbbbbb001111111111 )-!~!!@_...%%.)",
".....]%=4+bbbbbbbbbbbb001111111111 !!_....&%%&%..#",
"...%2*^=-,bbbbbbbbbbbb001111111111(!....]..%%.].).",
"2=*^^*=!,{{;0000000000bb~  -bbbbbb~ ....%]%.%%..$2",
"^42]_!|,'@~;0000000000bb,;(>bbbbbb.....%%%%%7%.=*^",
"&|;!~~{@@@~!.&aa..bbbbbb;;>8{@    ...a%%%%<==&.=::",
",e!@@@@@@@!.%%%%. bbbbbb|@'@@     ..d.&%%7==%a%*4&",
"!~@@@@@@@|@%%7%%) bbbbbb~@@@@   ).).]%%%%=**==2_|;",
"@@@@@@@@!~%==%]#)))..%+9~@@@@   ..]%%%%=*^j*.-;(,~",
"@@    @!~%===# ......k_9~@@@@@_ __-!9(;(;|[|(;3~-@",
"@@   -!~%72$  a.....]=d9;,,;;9f99(99;~!;3,;,|~~~-@",
"@'@@{{.%=$)'+.&.&].%=.,>,!!!;(!@     @!!~~@__~~{'@",
"@@  {.%%$){ .&&%%=4=-9>! _-[_).....) {;~~@ ~~~~~@@"};
