/* XPM */
static char * link_walk_down_xpm[] = {
"50 50 50 1",
" 	c #676D75",
".	c #697078",
"+	c #696E78",
"@	c #636B72",
"#	c #697077",
"$	c #6F757B",
"%	c #6F747C",
"&	c #6C737C",
"*	c #777D86",
"=	c #737A83",
"-	c #616672",
";	c #545B64",
">	c #4D535C",
",	c #565C69",
"'	c #61686F",
")	c #686E77",
"!	c #5C646C",
"~	c #5E686F",
"{	c #60676F",
"]	c #6D7379",
"^	c #787F86",
"/	c #646878",
"(	c #515663",
"_	c #80D010",
":	c #656A75",
"<	c #798087",
"[	c #727782",
"}	c #5E6471",
"|	c #5B5F70",
"1	c #595E6B",
"2	c #71777F",
"3	c #586067",
"4	c #747A83",
"5	c #4A5057",
"6	c #51585F",
"7	c #6F7480",
"8	c #FC9838",
"9	c #C84C0C",
"0	c #585F67",
"a	c #4E5362",
"b	c #6B727C",
"c	c #70747B",
"d	c #666D78",
"e	c #50575F",
"f	c #494F5D",
"g	c #414654",
"h	c #464B5B",
"i	c #5F6870",
"j	c #7B8289",
"k	c #71787F",
" .+@.#.$@ %%&%%*=-;>,'@ .).....$.... -!~~@~~{-@@@@",
" %@#.).]@.&&%=*^/(;!____________.... :!@ ~~~~@@@@ ",
")@@.#)#) %%%=^<*/;~@____________].%$.-~ @!!~{-@@@ ",
"- .##)]'.%%%*<[},;@@____________%.%. ~ )~!!~@@@@ :",
"#...)##@&%%=^+|,;~________________].- )-!!~~~@@-~@",
") )#)#)@&%=*+1;,@@________________2+:-!13!!~~@@1 .",
"   )##) =4%-;;!@@@________________+,>>56!!~~~@!~))",
"    .]@.7/1;!@88  __999999999999__(688;0!!~~'!(@ )",
"   )]])}},,~@@88 .__999999999999__;,880!,,,1;a;   ",
"@  #]$-;;0~@@@88..__999999999999__,,88~!;;;((!@   ",
"@ )]$+,!~@@@@@88.b9999999999999999,,88@@@@@@@@@@@@",
"@@#]c},~-@@@@ 88d.99999999999999990088@@@@@@@@@@@@",
" )$]:10@@@@@-}881,99999999999999991!88@@@@@@@@@@@ ",
"]+:1((,11!}},e88889988__8888__88998888-{@@@@@@@@ #",
"1;aa(;,0,;;;;!88889988__8888__88998888{{@@@'@@@).)",
"f>a(;!~@{~!!~~88889988__8888__88998888{{{@@@ ))@1(",
"!!!!~@@@}}@@@~888899889988889988998888~{@@)#:!;a;,",
"@@@@@@@@@@@@!1888899889988889988998888@@ @!;a>e!@@",
"@@@@@@@@@@@!;!88889988998888998899888811;af>!~~@@@",
"@@@@  @'@~!;!!~~8888888888888888888899ghf;0~@@@@@@",
"@@@  @~~!,;!~!~~88888888888888888888995;!@@@@@@@@@",
"  @ @~~,,3!~~~~~8888888888888888888899;~@@@@@@@@@ ",
"   @~~;!~~~~~@@@@@__888899998888__9999~i@@@@@@@   ",
").@~~!;~~~~@@@@'{~__888899998888__9999i@@@@:@@    ",
"# ~i@,,~~~!~~~!!!!__888899998888__9999@@@@@       ",
"@~@@@;!~!!!!!!9999999999888888______88@@@@@  @i@@@",
"@@ -1!~~~!!~!~9999999999888888______88@@@@@@@@i~~@",
"@ -0!~~~~~~~~~9999999999888888______88@  '@@@@@i@@",
"i@!!~~{~~~~~99998899999999__________88@@@~@@@@i'ii",
"i@!@{'~~~@@@99998899999999__________88@@@@@@@i@@@@",
"@ -@@@@@@'@@99998899999999__________88@@@@@@@@i@@@",
" ]@@@@@@@@@#998888889999889999____99@@@@@@@@@@@@@@",
"#+!@@@@@@@@$998888889999889999____99 @@@ @''@@@@''",
"@!@        %998888889999889999____99  @@  @@@@@@  ",
"~@        .+99998899999988__999999__  @@@@ @ )#.%]",
"    ))    $-99998899999988__999999__   )  ).++)+:~",
"   .).....],99998899999988__999999__ # )):}--}~:@ ",
"....)...]=d(999988999999889999______-!~!!@:...%%.)",
".....]%=4+;e999988999999889999______!:....&%%&%..#",
"...%2*^=-,!,999988999999889999______....]..%%.].).",
"2=*^^*=!,{{;99999999999988______99~ ....%]%.%%..$2",
"^42]:!1,'@~;99999999999988______99.....%%%%%7%.=*^",
"&1;!~~{@@@~!99999999999988______99...b%%%%[==&.=<<",
",e!@@@@@@@!.%%88888888881@'@999999..d.&%%7==%b%*4&",
"!~@@@@@@@1@%%78888888888~@@@999999).]%%%%=**==2:1;",
"@@@@@@@@!~%==%8888888888~@@@999999]%%%%=*^j*.-;(,~",
"@@    @!~%===# ......k:a~@@@999999-!a(;(;1}1(;3~-@",
"@@   -!~%72$  b.....]=da;,,;999999aa;~!;3,;,1~~~-@",
"@'@@{{.%=$)'+.&.&].%=.,>,!!!999999   @!!~~@::~~{'@",
"@@  {.%%$){ .&&%%=4=-a>! :-}:).....) {;~~@ ~~~~~@@"};
