/* XPM */
static char * link_walk_left_xpm[] = {
"50 50 52 1",
" 	c #676D75",
".	c #697078",
"+	c #696E78",
"@	c #636B72",
"#	c #697077",
"$	c #6F757B",
"%	c #6F747C",
"&	c #6C737C",
"*	c #777D86",
"=	c #737A83",
"-	c #616672",
";	c #545B64",
">	c #4D535C",
",	c #565C69",
"'	c #61686F",
")	c #686E77",
"!	c #5C646C",
"~	c #5E686F",
"{	c #60676F",
"]	c #6D7379",
"^	c #787F86",
"/	c #646878",
"(	c #515663",
"_	c #656A75",
":	c #798087",
"<	c #80D010",
"[	c #727782",
"}	c #5E6471",
"|	c #5B5F70",
"1	c #595E6B",
"2	c #C84C0C",
"3	c #71777F",
"4	c #586067",
"5	c #747A83",
"6	c #4A5057",
"7	c #51585F",
"8	c #6F7480",
"9	c #585F67",
"0	c #FC9838",
"a	c #4E5362",
"b	c #70747B",
"c	c #50575F",
"d	c #494F5D",
"e	c #464B5B",
"f	c #454A54",
"g	c #3E434E",
"h	c #414654",
"i	c #5F6870",
"j	c #666D78",
"k	c #6B727C",
"l	c #7B8289",
"m	c #71787F",
" .+@.#.$@ %%&%%*=-;>,'@ .).....$.... -!~~@~~{-@@@@",
" %@#.).]@.&&%=*^/(;!@@ ............. _!@ ~~~~@@@@ ",
")@@.#)#) %%%=^:*/;~@@<<<<<<<<.$$].%$.-~ @!!~{-@@@ ",
"- .##)]'.%%%*:[},;@@@<<<<<<<<%%%%.%. ~ )~!!~@@@@ _",
"#...)##@&%%=^+|,;~@@@<<<<<<<<%%%%%].- )-!!~~~@@-~@",
") )#)#)@&%=*+1;22222222<<<<<<<<<<%3+_-!14!!~~@@1 .",
"   )##) =5%-;;!22222222<<<<<<<<<<3+,>>67!!~~~@!~))",
"    .]@.8/1;!@@22222222<<<<<<<<<<-(7;;;9!!~~'!(@ )",
"   )]])}},,~@222222222222<<<<00<<<<<<,9!,,,1;a;   ",
"@  #]$-;;9~@@222222222222<<<<00<<<<<<,~!;;;((!@   ",
"@ )]$+,!~@@@@222222222222<<<<00<<<<<<!@@@@@@@@@@@@",
"@@#]b},~-@@@@ +2222222222220000<<<<<<<<@@@@@@@@@@@",
" )$]_19@@@@@-}12222222222220000<<<<<<<<@@@@@@@@@@ ",
"]+_1((,11!}},c72222222222220000<<<<<<<<{@@@@@@@@ #",
"1;aa(;,9,;;;;!~00<<000022000000<<<<~~<<{@@@'@@@).)",
"d>a(;!~@{~!!~~~00<<000022000000<<<<~~<<{{@@@ ))@1(",
"!!!!~@@@}}@@@~!00<<000022000000<<<<~~<<{@@)#_!;a;,",
"@@@@@@@@@@@0000002200002200002222<<@@@@@ @!;a>c!@@",
"@@@@@@@@@@@0000002200002200002222<<1,,11;ad>!~~@@@",
"@@@@  @'@~!0000002200002200002222<<efghed;9~@@@@@@",
"@@@  @~~!,;22!~000000000000222222(adf66;!@@@@@@@@@",
"  @ @~~,,4!22~~000000000000222222,66>>;~@@@@@@@@@ ",
"   @~~;!~~~22@@0000000000002222226>>>;~i@@@@@@@   ",
").@~~!;~~~~22@@00000000<<<<<<<<}(>7c,~i@@@@_@@    ",
"# ~i@,,~~~!22~!00000000<<<<<<<<a6>7;~'@@@@@       ",
"@~@@@;!~!!!22!!00000000<<<<<<<<>c;;!'@@@@@@  @i@@@",
"@@ -1!~~~!!22002222000000<<<<2222<<~@@@@@@@@@@i~~@",
"@ -9!~~~~~~22002222000000<<<<2222<<@@@@  '@@@@@i@@",
"i@!!~~{~~~~22002222000000<<<<2222<<@@@@@@~@@@@i'ii",
"i@!@{'~~~@@220022<<0000002222222222@@@@@@@@@@i@@@@",
"@ -@@@@@@'@220022<<0000002222222222@@@@@@@@@@@i@@@",
" ]@@@@@@@@@220022<<0000002222222222 @@@@@@@@@@@@@@",
"#+!@@@@@@@@22;!22<<<<00002222222222<<@@@ @''@@@@''",
"@!@        22,!22<<<<00002222222222<< @@  @@@@@@  ",
"~@        .22!~22<<<<00002222222222<< @@@@ @ )#.%]",
"    ))    $22~~~~22<<<<<<22222222<<<<  )  ).++)+_~",
"   .).....]22~~@@22<<<<<<22222222<<<<# ))_}--}~_@ ",
"....)...]=j22@@@@22<<<<<<22222222<<<<!~!!@_...%%.)",
".....]%=5+;22 @<<22222222<<<<<<<<<<2222...&%%&%..#",
"...%3*^=-,!22  <<22222222<<<<<<<<<<2222.]..%%.].).",
"3=*^^*=!,{{22++<<22222222<<<<<<<<<<2222.%]%.%%..$3",
"^53]_!1,'@~;+2222<<<<<<<<<<<<<<<<222222%%%%%8%.=*^",
"&1;!~~{@@@~!.2222<<<<<<<<<<<<<<<<222222%%%[==&.=::",
",c!@@@@@@@!.%2222<<<<<<<<<<<<<<<<222222%%8==%k%*5&",
"!~@@@@@@@1@%%8%222222]](~@@@@  222222%%%%=**==3_1;",
"@@@@@@@@!~%==%]222222%+a~@@@@  222222%%=*^l*.-;(,~",
"@@    @!~%===# 222222m_a~@@@@@_222222(;(;1}1(;4~-@",
"@@   -!~%83$  k.....]=ja;,,;;adaa(aa;~!;4,;,1~~~-@",
"@'@@{{.%=$)'+.&.&].%=.,>,!!!;(!@     @!!~~@__~~{'@",
"@@  {.%%$){ .&&%%=5=-a>! _-}_).....) {;~~@ ~~~~~@@"};
