/* XPM */
static char * link_walk_right_xpm[] = {
"50 50 50 1",
" 	c #676D75",
".	c #697078",
"+	c #696E78",
"@	c #636B72",
"#	c #697077",
"$	c #6F757B",
"%	c #6F747C",
"&	c #6C737C",
"*	c #777D86",
"=	c #737A83",
"-	c #616672",
";	c #545B64",
">	c #4D535C",
",	c #565C69",
"'	c #61686F",
")	c #686E77",
"!	c #5C646C",
"~	c #5E686F",
"{	c #60676F",
"]	c #6D7379",
"^	c #787F86",
"/	c #646878",
"(	c #515663",
"_	c #656A75",
":	c #798087",
"<	c #80D010",
"[	c #727782",
"}	c #5E6471",
"|	c #5B5F70",
"1	c #595E6B",
"2	c #C84C0C",
"3	c #586067",
"4	c #747A83",
"5	c #4A5057",
"6	c #51585F",
"7	c #6F7480",
"8	c #585F67",
"9	c #FC9838",
"0	c #4E5362",
"a	c #70747B",
"b	c #494F5D",
"c	c #50575F",
"d	c #464B5B",
"e	c #454A54",
"f	c #5F6870",
"g	c #666D78",
"h	c #71777F",
"i	c #6B727C",
"j	c #7B8289",
"k	c #71787F",
" .+@.#.$@ %%&%%*=-;>,'@ .).....$.... -!~~@~~{-@@@@",
" %@#.).]@.&&%=*^/(;!@@ ............. _!@ ~~~~@@@@ ",
")@@.#)#) %%%=^:*/;~@@<<<<<<<<.$$].%$.-~ @!!~{-@@@ ",
"- .##)]'.%%%*:[},;@@@<<<<<<<<%%%%.%. ~ )~!!~@@@@ _",
"#...)##@&%%=^+|,;~@@@<<<<<<<<%%%%%].- )-!!~~~@@-~@",
") )#)#)@&%=*+1;,@<<<<<<<<<<22222222+_-!13!!~~@@1 .",
"   )##) =4%-;;!@@<<<<<<<<<<22222222,>>56!!~~~@!~))",
"    .]@.7/1;!@@@ <<<<<<<<<<222222226;;;8!!~~'!(@ )",
"   )]])}},,~@<<<<<<99<<<<222222222222,8!,,,1;0;   ",
"@  #]$-;;8~@@<<<<<<99<<<<222222222222,~!;;;((!@   ",
"@ )]$+,!~@@@@<<<<<<99<<<<222222222222!@@@@@@@@@@@@",
"@@#]a},~-@@<<<<<<<<999922222222222283~@@@@@@@@@@@@",
" )$]_18@@@@<<<<<<<<9999222222222222!~@@@@@@@@@@@@ ",
"]+_1((,11!}<<<<<<<<9999222222222222~@@-{@@@@@@@@ #",
"1;00(;,8,;;<<!~<<<<999999229999<<99~~@{{@@@'@@@).)",
"b>0(;!~@{~!<<~~<<<<999999229999<<99~~~{{{@@@ ))@1(",
"!!!!~@@@}}@<<~!<<<<999999229999<<99~~~~{@@)#_!;0;,",
"@@@@@@@@@@@@!1!<<2222999922999922999999@ @!;0>c!@@",
"@@@@@@@@@@@!;!!<<22229999229999229999991;0b>!~~@@@",
"@@@@  @'@~!;!!~<<2222999922999922999999db;8~@@@@@@",
"@@@  @~~!,;!~!~~~222222999999999999be22;!@@@@@@@@@",
"  @ @~~,,3!~~~~~~2222229999999999995>22~@@@@@@@@@ ",
"   @~~;!~~~~~@@@@222222999999999999>>22f@@@@@@@   ",
").@~~!;~~~~@@@@'{~!<<<<<<<<99999999c,22@@@@_@@    ",
"# ~f@,,~~~!~~~!!!!,<<<<<<<<99999999;~22@@@@       ",
"@~@@@;!~!!!!!!!!!,;<<<<<<<<99999999!'22@@@@  @f@@@",
"@@ -1!~~~!!~!~!<<2222<<<<99999922229922@@@@@@@f~~@",
"@ -8!~~~~~~~~~~<<2222<<<<99999922229922  '@@@@@f@@",
"f@!!~~{~~~~~~'!<<2222<<<<99999922229922@@~@@@@f'ff",
"f@!@{'~~~@@@'@(2222222222999999<<229922@@@@@@f@@@@",
"@ -@@@@@@'@@ }(2222222222999999<<229922@@@@@@@f@@@",
" ]@@@@@@@@@#.;,2222222222999999<<229922@@@@@@@@@@@",
"#+!@@@@@@@@$_<<22222222229999<<<<22  22@ @''@@@@''",
"@!@        %1<<22222222229999<<<<22  22@  @@@@@@  ",
"~@        .+(<<22222222229999<<<<22  22@@@ @ )#.%]",
"    ))    $-;<<<<22222222<<<<<<22 @  22)  ).++)+_~",
"   .).....],,<<<<22222222<<<<<<22    22))_}--}~_@ ",
"....)...]=g(!<<<<22222222<<<<<<22  )-22!!@_...%%.)",
".....]%=4+;2222<<<<<<<<<<22222222<<!!22...&%%&%..#",
"...%h*^=-,!2222<<<<<<<<<<22222222<<!.22.]..%%.].).",
"h=*^^*=!,{{2222<<<<<<<<<<22222222<< .22.%]%.%%..$h",
"^4h]_!1,'@~222222<<<<<<<<<<<<<<<<2222..%%%%%7%.=*^",
"&1;!~~{@@@~222222<<<<<<<<<<<<<<<<2222i%%%%[==&.=::",
",c!@@@@@@@!222222<<<<<<<<<<<<<<<<2222.&%%7==%i%*4&",
"!~@@@@@@@1@%%222222 )]](~@@@@222222.]%%%%=**==h_1;",
"@@@@@@@@!~%==222222..%+0~@@@@222222%%%%=*^j*.-;(,~",
"@@    @!~%===222222..k_0~@@@@222222!0(;(;1}1(;3~-@",
"@@   -!~%7h$  i.....]=g0;,,;;0b00(00;~!;3,;,1~~~-@",
"@'@@{{.%=$)'+.&.&].%=.,>,!!!;(!@     @!!~~@__~~{'@",
"@@  {.%%$){ .&&%%=4=-0>! _-}_).....) {;~~@ ~~~~~@@"};
