/* XPM */
static char * link_walk_up_xpm[] = {
"50 50 52 1",
" 	c #676D75",
".	c #697078",
"+	c #696E78",
"@	c #636B72",
"#	c #697077",
"$	c #6F757B",
"%	c #6F747C",
"&	c #6C737C",
"*	c #777D86",
"=	c #737A83",
"-	c #616672",
";	c #545B64",
">	c #4D535C",
",	c #565C69",
"'	c #61686F",
")	c #686E77",
"!	c #5C646C",
"~	c #5E686F",
"{	c #60676F",
"]	c #6D7379",
"^	c #787F86",
"/	c #646878",
"(	c #515663",
"_	c #80D010",
":	c #656A75",
"<	c #798087",
"[	c #727782",
"}	c #5E6471",
"|	c #5B5F70",
"1	c #595E6B",
"2	c #71777F",
"3	c #586067",
"4	c #747A83",
"5	c #4A5057",
"6	c #51585F",
"7	c #6F7480",
"8	c #FC9838",
"9	c #585F67",
"0	c #4E5362",
"a	c #70747B",
"b	c #C84C0C",
"c	c #494F5D",
"d	c #50575F",
"e	c #464B5B",
"f	c #454A54",
"g	c #3E434E",
"h	c #414654",
"i	c #5F6870",
"j	c #666D78",
"k	c #6B727C",
"l	c #7B8289",
"m	c #71787F",
" .+@.#.$@ %%&%%*=-;>,'@ .).....$.... -!~~@~~{-@@@@",
" %@#.).]@.&&%=*^/(;____________..... :!@ ~~~~@@@@ ",
")@@.#)#) %%%=^<*/;~____________$].%$.-~ @!!~{-@@@ ",
"- .##)]'.%%%*<[},;@____________%%.%. ~ )~!!~@@@@ :",
"#...)##@&%%=^+|,;________________%].- )-!!~~~@@-~@",
") )#)#)@&%=*+1;,@________________%2+:-!13!!~~@@1 .",
"   )##) =4%-;;!@@________________2+,>>56!!~~~@!~))",
"    .]@.7/1;!88@ ________________-(88;;9!!~~'!(@ )",
"   )]])}},,~@88@ ________________6;88,9!,,,1;0;   ",
"@  #]$-;;9~@@88 .________________,,88,~!;;;((!@   ",
"@ )]$+,!~@@@@88____________________88!@@@@@@@@@@@@",
"@@#]a},~-@@@@88____________________88~@@@@@@@@@@@@",
" )$]:19@@@@@-88____________________88@@@@@@@@@@@@ ",
"]+:1((,11!}},88bb________________bb88@-{@@@@@@@@ #",
"1;00(;,9,;;;;88bb________________bb88@{{@@@'@@@).)",
"c>0(;!~@{~!!~88bb________________bb88~{{{@@@ ))@1(",
"!!!!~@@@}}@@@8888bbbb________bbbb8888~~{@@)#:!;0;,",
"@@@@@@@@@@@@!8888bbbb________bbbb8888@@@ @!;0>d!@@",
"@@@@@@@@@@@!;8888bbbb________bbbb8888,11;0c>!~~@@@",
"@@@@  @'@~!;!!~88bbbbbb____bbbbbb88efghec;9~@@@@@@",
"@@@  @~~!,;!~!~88bbbbbb____bbbbbb88cf55;!@@@@@@@@@",
"  @ @~~,,3!~~~~88bbbbbb____bbbbbb885>>;~@@@@@@@@@ ",
"   @~~;!~~~~~@@bb__bbbbbbbbbbbb__bb>>;~i@@@@@@@   ",
").@~~!;~~~~@@@@bb__bbbbbbbbbbbb__bbd,~i@@@@:@@    ",
"# ~i@,,~~~!~~~!bb__bbbbbbbbbbbb__bb;~'@@@@@       ",
"@~@@@;!~!!!!!!!bbbb______________bbbb@@@@@@  @i@@@",
"@@ -1!~~~!!~!~!bbbb______________bbbb@@@@@@@@@i~~@",
"@ -9!~~~~~~~~~~bbbb______________bbbb@@  '@@@@@i@@",
"i@!!~~{~~~~~~88bbbb______________bbbb@@@@~@@@@i'ii",
"i@!@{'~~~@@@'88bbbb______________bbbb@@@@@@@@i@@@@",
"@ -@@@@@@'@@ 88bbbb______________bbbb@@@@@@@@@i@@@",
" ]@@@@@@@@@#.88bbbb____________bbbb @@@@@@@@@@@@@@",
"#+!@@@@@@@@$:88bbbb____________bbbb  @@@ @''@@@@''",
"@!@        %188bbbb____________bbbb   @@  @@@@@@  ",
"~@        .+(8888__bbbbbbbbbbbb____   @@@@ @ )#.%]",
"    ))    $-;8888__bbbbbbbbbbbb____    )  ).++)+:~",
"   .).....],,8888__bbbbbbbbbbbb____  # )):}--}~:@ ",
"....)...]=j(!@@____________________)-!~!!@:...%%.)",
".....]%=4+;d! @____________________!!:....&%%&%..#",
"...%2*^=-,!,!  ____________________!....]..%%.].).",
"2=*^^*=!,{{;@+++)bb__________bbbbbb ....%]%.%%..$2",
"^42]:!1,'@~;+....bb__________bbbbbb....%%%%%7%.=*^",
"&1;!~~{@@@~!.&kk.bb__________bbbbbb..k%%%%[==&.=<<",
",d!@@@@@@@!.%%%%.  bbbb!1@'bbbbbbbb.j.&%%7==%k%*4&",
"!~@@@@@@@1@%%7%%)  bbbb(~@@bbbbbbbb.]%%%%=**==2:1;",
"@@@@@@@@!~%==%]#)))bbbb0~@@bbbbbbbb%%%%=*^l*.-;(,~",
"@@    @!~%===# ......m:0~@@@@bbbb:-!0(;(;1}1(;3~-@",
"@@   -!~%72$  k.....]=j0;,,;;bbbb(00;~!;3,;,1~~~-@",
"@'@@{{.%=$)'+.&.&].%=.,>,!!!;bbbb    @!!~~@::~~{'@",
"@@  {.%%$){ .&&%%=4=-0>! :-}:).....) {;~~@ ~~~~~@@"};
