/* XPM */
static char * enemy_down_xpm[] = {
"50 50 48 1",
" 	c #676D75",
".	c #697078",
"+	c #696E78",
"@	c #636B72",
"#	c #697077",
"$	c #6F757B",
"%	c #6F747C",
"&	c #6C737C",
"*	c #777D86",
"=	c #737A83",
"-	c #616672",
";	c #545B64",
">	c #4D535C",
",	c #565C69",
"'	c #61686F",
")	c #686E77",
"!	c #5C646C",
"~	c #5E686F",
"{	c #60676F",
"]	c #6D7379",
"^	c #787F86",
"/	c #646878",
"(	c #515663",
"_	c #656A75",
":	c #798087",
"<	c #727782",
"[	c #5E6471",
"}	c #5B5F70",
"|	c #595E6B",
"1	c #6F7480",
"2	c #71777F",
"3	c #586067",
"4	c #747A83",
"5	c #4A5057",
"6	c #51585F",
"7	c #585F67",
"8	c #4E5362",
"9	c #D82800",
"0	c #FC9838",
"a	c #6B727C",
"b	c #70747B",
"c	c #494F5D",
"d	c #50575F",
"e	c #51F0F6",
"f	c #5F6870",
"g	c #666D78",
"h	c #7B8289",
"i	c #71787F",
" .+@.#.$@ %%&%%*=-;>,'@ .).....$.... -!~~@~~{-@@@@",
" %@#.).]@.&&%=*^/(;!@@ ............. _!@ ~~~~@@@@ ",
")@@.#)#) %%%=^:*/;~@@_ .......$$].%$.-~ @!!~{-@@@ ",
"- .##)]'.%%%*:<[,;@@@ .....%%%%%%.%. ~ )~!!~@@@@ _",
"#...)##@&%%=^+},;~@@@ %]...%%%%%%%].- )-!!~~~@@-~@",
") )#)#)@&%=*+|;,@@@  .%%%.]%%%%1%%2+_-!|3!!~~@@| .",
"   )##) =4%-;;!@@@ .%..%%%%%11%%%2+,>>56!!~~~@!~))",
"    .]@.1/|;!@@@  .]%%]%%%%=====2-(6;;;7!!~~'!(@ )",
"   )]])[[,,~@@@@ ..%]%%%1=11=%==@6;,,,7!,,,|;8;   ",
"@  #]$-;;7~@@@@ ...999900009999/;,,,,,~!;;;((!@   ",
"@ )]$+,!~@@@@@ #.a.999900009999,;,,,,!@@@@@@@@@@@@",
"@@#]b[,~-@@@@ +9999009999999900999973~@@@@@@@@@@@@",
" )$]_|7@@@@@-[|99990099999999009999!~@@@@@@@@@@@@ ",
"]+_|((,||99999999999999999999999999999999@@@@@@@ #",
"|;88(;,7,99999999999999999999999999999999@@'@@@).)",
"c>8(;!~@{~!9999999999009999009999999999{{@@@ ))@|(",
"!!!!~@@@[[@9999999999009999009999999999{@@)#_!;8;,",
"@@@@@@@@@@@@!999900999999999999009999@@@ @!;8>d!@@",
"@@@@@@@@@@@!;999900999999999999009999,||;8c>!~~@@@",
"@@@@  @'@99999999eeee99999999eeee99999999;7~@@@@@@",
"@@@  @~~!99999999eeee99999999eeee99999999@@@@@@@@@",
"  @ @~~,,3!9999eeee99eeeeeeee99eeee9999~@@@@@@@@@ ",
"   @~~;!~~~9999eeee99eeeeeeee99eeee9999f@@@@@@@   ",
").@~~!;~~~~@@99eeee9999eeee9999eeee99~f@@@@_@@    ",
"# ~f@,,~~~!~~99eeee9999eeee9999eeee99'@@@@@       ",
"@~@@@;!~!!!999999ee9999eeee9999ee999999@@@@  @f@@@",
"@@ -|!~~~!!999999ee9999eeee9999ee999999@@@@@@@f~~@",
"@ -7!~~~~~~99~~99eeee99eeee99eeee99@@99  '@@@@@f@@",
"f@!!~~{~~~~99'!99eeee99eeee99eeee99@@99@@~@@@@f'ff",
"f@!@{'~~~@@@'@(999999eeeeeeee999999@@@@@@@@@@f@@@@",
"@ -@@@@@@'@@ [(999999eeeeeeee999999@@@@@@@@@@@f@@@",
" ]@@@@@@@@@#.;,9999!!99999999!'9999 @@@@@@@@@@@@@@",
"#+!@@@@@@@@$_;!9999~~99999999@ 9999  @@@ @''@@@@''",
"@!@        %|,!!!~~~~99999999    @    @@  @@@@@@  ",
"~@        .+(!~~~~~~~99999999         @@@@ @ )#.%]",
"    ))    $-;~~~~~~~~99999999     @    )  ).++)+_~",
"   .).....],,~~@@@@~~99999999        # ))_[--[~_@ ",
"....)...]=g(!@@@@@@@~99999999      )-!~!!@_...%%.)",
".....]%=4+;d! @@_@@@@99999999  @ . !!_....&%%&%..#",
"...%2*^=-,!,!    99999999999999998(!....]..%%.].).",
"2=*^^*=!,{{;@+++)9999999999999999;~ ....%]%.%%..$2",
"^42]_!|,'@~;+......   @@,;(>>;@   .....%%%%%1%.=*^",
"&|;!~~{@@@~!.&aa... @@@@;;>7{@    ...a%%%%<==&.=::",
",d!@@@@@@@!.%%%%.  @@ ]!|@'@@     ..g.&%%1==%a%*4&",
"!~@@@@@@@|@%%1%%)   )]](~@@@@   ).).]%%%%=**==2_|;",
"@@@@@@@@!~%==%]#)))..%+8~@@@@   ..]%%%%=*^h*.-;(,~",
"@@    @!~%===# ......i_8~@@@@@_ __-!8(;(;|[|(;3~-@",
"@@   -!~%12$  a.....]=g8;,,;;8c88(88;~!;3,;,|~~~-@",
"@'@@{{.%=$)'+.&.&].%=.,>,!!!;(!@     @!!~~@__~~{'@",
"@@  {.%%$){ .&&%%=4=-8>! _-[_).....) {;~~@ ~~~~~@@"};
