/* XPM */
static char * enemy_left_xpm[] = {
"50 50 48 1",
" 	c #676D75",
".	c #697078",
"+	c #696E78",
"@	c #636B72",
"#	c #697077",
"$	c #6F757B",
"%	c #6F747C",
"&	c #6C737C",
"*	c #777D86",
"=	c #737A83",
"-	c #616672",
";	c #545B64",
">	c #4D535C",
",	c #565C69",
"'	c #61686F",
")	c #686E77",
"!	c #5C646C",
"~	c #5E686F",
"{	c #60676F",
"]	c #6D7379",
"^	c #787F86",
"/	c #646878",
"(	c #515663",
"_	c #656A75",
":	c #798087",
"<	c #727782",
"[	c #5E6471",
"}	c #5B5F70",
"|	c #595E6B",
"1	c #6F7480",
"2	c #71777F",
"3	c #586067",
"4	c #747A83",
"5	c #4A5057",
"6	c #51585F",
"7	c #585F67",
"8	c #4E5362",
"9	c #71787F",
"0	c #D82800",
"a	c #6B727C",
"b	c #70747B",
"c	c #666D78",
"d	c #50575F",
"e	c #494F5D",
"f	c #51F0F6",
"g	c #FC9838",
"h	c #5F6870",
"i	c #7B8289",
" .+@.#.$@ %%&%%*=-;>,'@ .).....$.... -!~~@~~{-@@@@",
" %@#.).]@.&&%=*^/(;!@@ ............. _!@ ~~~~@@@@ ",
")@@.#)#) %%%=^:*/;~@@_ .......$$].%$.-~ @!!~{-@@@ ",
"- .##)]'.%%%*:<[,;@@@ .....%%%%%%.%. ~ )~!!~@@@@ _",
"#...)##@&%%=^+},;~@@@ %]...%%%%%%%].- )-!!~~~@@-~@",
") )#)#)@&%=*+|;,@@@  .%%%.]%%%%1%%2+_-!|3!!~~@@| .",
"   )##) =4%-;;!@@@ .%..%%%%%11%%%2+,>>56!!~~~@!~))",
"    .]@.1/|;!@@@  .]%%]%%%%=====2-(6;;;7!!~~'!(@ )",
"   )]])[[,,~@@@@ ..%]%%%1=11=%==@6;,,,7!,,,|;8;   ",
"@  #]$-;;7~@@@@ ...%%%%9=====00/;,,00,~!;;;((!@   ",
"@ )]$+,!~@@@@@ #.a.%%%%====%200,;,,00!@@@@@@@@@@@@",
"@@#]b[,~-@@@@ +cc..a.0000==0000;,0000~@@@@@@@@@@@@",
" )$]_|7@@@@@-[|,|,,,70000&-0000!!0000@@@@@@@@@@@@ ",
"]+_|((,||![[,d6;;6;,,,;00000000000000@-{@@@@@@@@ #",
"|;88(;,7,;;;;!~!!7!!,7!00000000000000@{{@@@'@@@).)",
"e>8(;!~@{~!!~~~!!00000000ffff0000000000{{@@@ ))@|(",
"!!!!~@@@[[@@@~!!!00000000ffff0000000000{@@)#_!;8;,",
"@@@@@@@@@00@!|!!!0000ffffffffffgg000000@ @!;8>d!@@",
"@@@@@@@@@00!;!!!!0000ffffffffffgg000000|;8e>!~~@@@",
"@@@@  @'@00;!!~~~~~00ff000000ff000000gg00;7~@@@@@@",
"@@@  @~~!00!~!~~~~@00ff000000ff000000gg00@@@@@@@@@",
"  @ @~~,,0000000000ff000000ff0000gg000000@@@@@@@@ ",
"   @~~;!~0000000000ff000000ff0000gg000000@@@@@@   ",
").@~~!;~~0000000000ffffffffff0000000000gg@@_@@    ",
"# ~h@,,~~0000000000ffffffffff0000000000gg@@       ",
"@~@@@;!~!0000000000ffffffffff0000000000gg@@  @h@@@",
"@@ -|!~~~0000000000ffffffffff0000000000gg@@@@@h~~@",
"@ -7!~~~~0000000000ff000000ff0000gg000000'@@@@@h@@",
"h@!!~~{~~0000000000ff000000ff0000gg000000~@@@@h'hh",
"h@!@{'~~~00@'@(6!!!00ff000000ff000000gg00@@@@h@@@@",
"@ -@@@@@@00@ [(3!!!00ff000000ff000000gg00@@@@@h@@@",
" ]@@@@@@@00#.;,!!0000ffffffffffgg000000@@@@@@@@@@@",
"#+!@@@@@@00$_;!!!0000ffffffffffgg000000@ @''@@@@''",
"@!@        %|,!!!00000000ffff0000000000@  @@@@@@  ",
"~@        .+(!~~~00000000ffff0000000000@@@ @ )#.%]",
"    ))    $-;~~~~~~~~!!00000000000000  )  ).++)+_~",
"   .).....],,~~@@@@~~~~00000000000000# ))_[--[~_@ ",
"....)...]=c(!@@@@@@@~0000  0000  0000!~!!@_...%%.)",
".....]%=4+;d! @@_@@@@0000  0000@ 0000_....&%%&%..#",
"...%2*^=-,!,!    @@@@@ @{    00888(00...]..%%.].).",
"2=*^^*=!,{{;@+++))    @'~  -;00||;~00...%]%.%%..$2",
"^42]_!|,'@~;+......   @@,;(>>;@   .....%%%%%1%.=*^",
"&|;!~~{@@@~!.&aa... @@@@;;>7{@    ...a%%%%<==&.=::",
",d!@@@@@@@!.%%%%.  @@ ]!|@'@@     ..c.&%%1==%a%*4&",
"!~@@@@@@@|@%%1%%)   )]](~@@@@   ).).]%%%%=**==2_|;",
"@@@@@@@@!~%==%]#)))..%+8~@@@@   ..]%%%%=*^i*.-;(,~",
"@@    @!~%===# ......9_8~@@@@@_ __-!8(;(;|[|(;3~-@",
"@@   -!~%12$  a.....]=c8;,,;;8e88(88;~!;3,;,|~~~-@",
"@'@@{{.%=$)'+.&.&].%=.,>,!!!;(!@     @!!~~@__~~{'@",
"@@  {.%%$){ .&&%%=4=-8>! _-[_).....) {;~~@ ~~~~~@@"};
