/* XPM */
static char * enemy_up_xpm[] = {
"50 50 52 1",
" 	c #676D75",
".	c #697078",
"+	c #696E78",
"@	c #636B72",
"#	c #697077",
"$	c #6F757B",
"%	c #6F747C",
"&	c #6C737C",
"*	c #777D86",
"=	c #737A83",
"-	c #616672",
";	c #545B64",
">	c #4D535C",
",	c #565C69",
"'	c #61686F",
")	c #686E77",
"!	c #5C646C",
"~	c #5E686F",
"{	c #60676F",
"]	c #6D7379",
"^	c #787F86",
"/	c #646878",
"(	c #515663",
"_	c #656A75",
":	c #798087",
"<	c #727782",
"[	c #5E6471",
"}	c #5B5F70",
"|	c #595E6B",
"1	c #6F7480",
"2	c #71777F",
"3	c #586067",
"4	c #747A83",
"5	c #4A5057",
"6	c #51585F",
"7	c #585F67",
"8	c #4E5362",
"9	c #D82800",
"0	c #70747B",
"a	c #666D78",
"b	c #6B727C",
"c	c #50575F",
"d	c #494F5D",
"e	c #51F0F6",
"f	c #464B5B",
"g	c #454A54",
"h	c #3E434E",
"i	c #414654",
"j	c #5F6870",
"k	c #FC9838",
"l	c #7B8289",
"m	c #71787F",
" .+@.#.$@ %%&%%*=-;>,'@ .).....$.... -!~~@~~{-@@@@",
" %@#.).]@.&&%=*^/(;!@@ ............. _!@ ~~~~@@@@ ",
")@@.#)#) %%%=^:*/;~@@_ .......$$].%$.-~ @!!~{-@@@ ",
"- .##)]'.%%%*:<[,;@@@ .....%%%%%%.%. ~ )~!!~@@@@ _",
"#...)##@&%%=^+},;~@@@ %]...%%%%%%%].- )-!!~~~@@-~@",
") )#)#)@&%=*+|;,@@@  .%%%.]%%%%1%%2+_-!|3!!~~@@| .",
"   )##) =4%-;;!@@@ .%..%%%%%11%%%2+,>>56!!~~~@!~))",
"    .]@.1/|;!@@@  .]%%]%%%%=====2-(6;;;7!!~~'!(@ )",
"   )]])[[,,~@@@@ ..%]%%%1=11=%==@6;,,,7!,,,|;8;   ",
"@  #]$-;;7~@@@@ .9999999999999999,,,,,~!;;;((!@   ",
"@ )]$+,!~@@@@@ #.9999999999999999,,,,!@@@@@@@@@@@@",
"@@#]0[,~-@@@@ +aa..b.99999999|;;,,773~@@@@@@@@@@@@",
" )$]_|7@@@@@-[|,|,,,799999999c;!!!|!~@@@@@@@@@@@@ ",
"]+_|((,||![[,c6;;6;,,99999999!!!!!!~@@-{@@@@@@@@ #",
"|;88(;,7,;;;;!~!!7!!,99999999!!!!!~~~@{{@@@'@@@).)",
"d>8(;!~@{~!!~~~!!!!!!99999999!!!!~~~~~{{{@@@ ))@|(",
"!!!!~@@@[[@@@~!!!!!!!99999999~!~~~~~~~~{@@)#_!;8;,",
"@@@@@@@@@@@@!|!9999~~99999999~~9999@@@@@ @!;8>c!@@",
"@@@@@@@@@@@!;!!9999~~99999999~~9999|,,||;8d>!~~@@@",
"@@@@  @'@~!;!!~999999eeeeeeee999999fghifd;7~@@@@@@",
"@@@  @~~!,;!~!~999999eeeeeeee999999dg55;!@@@@@@@@@",
"  @ @~~,,3!99~~99eeee99eeee99eeee995>99~@@@@@@@@@ ",
"   @~~;!~~~99@@99eeee99eeee99eeee99>>99j@@@@@@@   ",
").@~~!;~~~~999999ee9999eeee9999ee999999@@@@_@@    ",
"# ~j@,,~~~!999999ee9999eeee9999ee999999@@@@       ",
"@~@@@;!~!!!!!99eeee9999eeee9999eeee99@@@@@@  @j@@@",
"@@ -|!~~~!!~!99eeee9999eeee9999eeee99@@@@@@@@@j~~@",
"@ -7!~~~~~~9999eeee99eeeeeeee99eeee9999  '@@@@@j@@",
"j@!!~~{~~~~9999eeee99eeeeeeee99eeee9999@@~@@@@j'jj",
"j@!@{'~~~99999999eeee99999999eeee99999999@@@@j@@@@",
"@ -@@@@@@99999999eeee99999999eeee99999999@@@@@j@@@",
" ]@@@@@@@@@#.9999kk999999999999kk9999@@@@@@@@@@@@@",
"#+!@@@@@@@@$_9999kk999999999999kk9999@@@ @''@@@@''",
"@!@        9999999999kk9999kk9999999999@  @@@@@@  ",
"~@        .9999999999kk9999kk9999999999@@@ @ )#.%]",
"    ))   99999999999999999999999999999999 ).++)+_~",
"   .)....99999999999999999999999999999999_[--[~_@ ",
"....)...]=a(!@@9999kk99999999kk9999)-!~!!@_...%%.)",
".....]%=4+;c! @9999kk99999999kk9999!!_....&%%&%..#",
"...%2*^=-,!,!    @@9999kkkk9999888(!....]..%%.].).",
"2=*^^*=!,{{;@+++)) 9999kkkk9999||;~ ....%]%.%%..$2",
"^42]_!|,'@~;+......   @@,;(>>;@   .....%%%%%1%.=*^",
"&|;!~~{@@@~!.&bb... @@@@;;>7{@    ...b%%%%<==&.=::",
",c!@@@@@@@!.%%%%.  @@ ]!|@'@@     ..a.&%%1==%b%*4&",
"!~@@@@@@@|@%%1%%)   )]](~@@@@   ).).]%%%%=**==2_|;",
"@@@@@@@@!~%==%]#)))..%+8~@@@@   ..]%%%%=*^l*.-;(,~",
"@@    @!~%===# ......m_8~@@@@@_ __-!8(;(;|[|(;3~-@",
"@@   -!~%12$  b.....]=a8;,,;;8d88(88;~!;3,;,|~~~-@",
"@'@@{{.%=$)'+.&.&].%=.,>,!!!;(!@     @!!~~@__~~{'@",
"@@  {.%%$){ .&&%%=4=-8>! _-[_).....) {;~~@ ~~~~~@@"};
