/* XPM */
static char * enemy_walk_down_xpm[] = {
"50 50 49 1",
" 	c #676D75",
".	c #697078",
"+	c #696E78",
"@	c #636B72",
"#	c #697077",
"$	c #6F757B",
"%	c #6F747C",
"&	c #6C737C",
"*	c #777D86",
"=	c #737A83",
"-	c #616672",
";	c #545B64",
">	c #4D535C",
",	c #565C69",
"'	c #61686F",
")	c #686E77",
"!	c #5C646C",
"~	c #5E686F",
"{	c #60676F",
"]	c #6D7379",
"^	c #787F86",
"/	c #646878",
"(	c #515663",
"_	c #656A75",
":	c #798087",
"<	c #727782",
"[	c #5E6471",
"}	c #5B5F70",
"|	c #595E6B",
"1	c #6F7480",
"2	c #71777F",
"3	c #586067",
"4	c #747A83",
"5	c #4A5057",
"6	c #51585F",
"7	c #585F67",
"8	c #4E5362",
"9	c #71787F",
"0	c #6B727C",
"a	c #6B6F7D",
"b	c #70747B",
"c	c #666D78",
"d	c #D82800",
"e	c #FC9838",
"f	c #50575F",
"g	c #494F5D",
"h	c #51F0F6",
"i	c #5F6870",
"j	c #7B8289",
" .+@.#.$@ %%&%%*=-;>,'@ .).....$.... -!~~@~~{-@@@@",
" %@#.).]@.&&%=*^/(;!@@ ............. _!@ ~~~~@@@@ ",
")@@.#)#) %%%=^:*/;~@@_ .......$$].%$.-~ @!!~{-@@@ ",
"- .##)]'.%%%*:<[,;@@@ .....%%%%%%.%. ~ )~!!~@@@@ _",
"#...)##@&%%=^+},;~@@@ %]...%%%%%%%].- )-!!~~~@@-~@",
") )#)#)@&%=*+|;,@@@  .%%%.]%%%%1%%2+_-!|3!!~~@@| .",
"   )##) =4%-;;!@@@ .%..%%%%%11%%%2+,>>56!!~~~@!~))",
"    .]@.1/|;!@@@  .]%%]%%%%=====2-(6;;;7!!~~'!(@ )",
"   )]])[[,,~@@@@ ..%]%%%1=11=%==@6;,,,7!,,,|;8;   ",
"@  #]$-;;7~@@@@ ...%%%%9=====94/;,,,,,~!;;;((!@   ",
"@ )]$+,!~@@@@@ #.0.%%%%====%2=a,;,,,,!@@@@@@@@@@@@",
"@@#]b[,~-@@@@ +cc..ddddeeeedddd;,,773~@@@@@@@@@@@@",
" )$]_|7@@@@@-[|,|,,ddddeeeedddd!!!|!~@@@@@@@@@@@@ ",
"]+_|((,||ddddf6ddddeeddddddddeedddd~@dddd@@@@@@@ #",
"|;88(;,7,dddd!~ddddeeddddddddeedddd~~dddd@@'@@@).)",
"g>8(;!~@{~!ddddeeddddddddddddddddeedddd{{@@@ ))@|(",
"!!!!~@@@[[@ddddeeddddddddddddddddeedddd{@@)#_!;8;,",
"@@@@@@@@@@@@!ddddddddeeddddeedddddddd@@@ @!;8>f!@@",
"@@@@@@@@@@@!;ddddddddeeddddeedddddddd,||;8g>!~~@@@",
"@@@@  @'@ddddddddeeddddddddddddeedddddddd;7~@@@@@@",
"@@@  @~~!ddddddddeeddddddddddddeedddddddd@@@@@@@@@",
"  @ @~~,,3!ddddddhhhhddddddddhhhhdddddd~@@@@@@@@@ ",
"   @~~;!~~~ddddddhhhhddddddddhhhhddddddi@@@@@@@   ",
").@~~!;~~~~@@ddhhhhddhhhhhhhhddhhhhdd~i@@@@_@@    ",
"# ~i@,,~~~!~~ddhhhhddhhhhhhhhddhhhhdd'@@@@@       ",
"@~@@@;!~!!!ddddhhhhddddhhhhddddhhhhdddd@@@@  @i@@@",
"@@ -|!~~~!!ddddhhhhddddhhhhddddhhhhdddd@@@@@@@i~~@",
"@ -7!~~~~ddddddddhhddddhhhhddddhhdddddddd'@@@@@i@@",
"i@!!~~{~~ddddddddhhddddhhhhddddhhdddddddd~@@@@i'ii",
"i@!@{'~~~@@@'@(ddhhhhddhhhhddhhhhdd@@@@@@@@@@i@@@@",
"@ -@@@@@@'@@ [(ddhhhhddhhhhddhhhhdd@@@@@@@@@@@i@@@",
" ]@@@@@@@@@#.;,ddddddhhhhhhhhdddddd @@@@@@@@@@@@@@",
"#+!@@@@@@@@$_;!ddddddhhhhhhhhdddddd  @@@ @''@@@@''",
"@!@        %|dddd~~~~dddddddd    dddd @@  @@@@@@  ",
"~@        .+(dddd~~~~dddddddd    dddd @@@@ @ )#.%]",
"    ))    $-;~~~~~~dddddddddddd   @    )  ).++)+_~",
"   .).....],,~~@@@@dddddddddddd      # ))_[--[~_@ ",
"....)...]=c(!@@@@dddddddddddddddd  )-!~!!@_...%%.)",
".....]%=4+;f! @@_dddddddddddddddd. !!_....&%%&%..#",
"...%2*^=-,!,!    @@@@@ @{    !(888(!....]..%%.].).",
"2=*^^*=!,{{;@+++))    @'~  -;g8||;~ ....%]%.%%..$2",
"^42]_!|,'@~;+......   @@,;(>>;@   .....%%%%%1%.=*^",
"&|;!~~{@@@~!.&00... @@@@;;>7{@    ...0%%%%<==&.=::",
",f!@@@@@@@!.%%%%.  @@ ]!|@'@@     ..c.&%%1==%0%*4&",
"!~@@@@@@@|@%%1%%)   )]](~@@@@   ).).]%%%%=**==2_|;",
"@@@@@@@@!~%==%]#)))..%+8~@@@@   ..]%%%%=*^j*.-;(,~",
"@@    @!~%===# ......9_8~@@@@@_ __-!8(;(;|[|(;3~-@",
"@@   -!~%12$  0.....]=c8;,,;;8g88(88;~!;3,;,|~~~-@",
"@'@@{{.%=$)'+.&.&].%=.,>,!!!;(!@     @!!~~@__~~{'@",
"@@  {.%%$){ .&&%%=4=-8>! _-[_).....) {;~~@ ~~~~~@@"};
