/* XPM */
static char * enemy_walk_left_xpm[] = {
"50 50 49 1",
" 	c #676D75",
".	c #697078",
"+	c #696E78",
"@	c #636B72",
"#	c #697077",
"$	c #6F757B",
"%	c #6F747C",
"&	c #6C737C",
"*	c #777D86",
"=	c #737A83",
"-	c #616672",
";	c #545B64",
">	c #4D535C",
",	c #565C69",
"'	c #61686F",
")	c #686E77",
"!	c #5C646C",
"~	c #5E686F",
"{	c #60676F",
"]	c #6D7379",
"^	c #787F86",
"/	c #646878",
"(	c #515663",
"_	c #656A75",
":	c #798087",
"<	c #727782",
"[	c #5E6471",
"}	c #5B5F70",
"|	c #595E6B",
"1	c #6F7480",
"2	c #71777F",
"3	c #586067",
"4	c #747A83",
"5	c #4A5057",
"6	c #51585F",
"7	c #585F67",
"8	c #4E5362",
"9	c #D82800",
"0	c #71787F",
"a	c #6B727C",
"b	c #70747B",
"c	c #666D78",
"d	c #50575F",
"e	c #494F5D",
"f	c #51F0F6",
"g	c #FC9838",
"h	c #464B5B",
"i	c #5F6870",
"j	c #7B8289",
" .+@.#.$@ %%&%%*=-;>,'@ .).....$.... -!~~@~~{-@@@@",
" %@#.).]@.&&%=*^/(;!@@ ............. _!@ ~~~~@@@@ ",
")@@.#)#) %%%=^:*/;~@@_ .......$$].%$.-~ @!!~{-@@@ ",
"- .##)]'.%%%*:<[,;@@@ .....%%%%%%.%. ~ )~!!~@@@@ _",
"#...)##@&%%=^+},;~@@@ %]...%%%%%%%].- )-!!~~~@@-~@",
") )#)#)@&%=*+|;,@@@  .%%%.]%%%%1%%2+_-!|3!!~~@@| .",
"   )##) =4%-;;!@@@ .%..%%%%%11%%%2+,>>56!!~~~@!~))",
"    .]@.1/|;!@@@  .]%%]%%%%=====2-(6;;;7!!~~'!(@ )",
"   )]])[[,,~@@@@ ..%]%%%1=11=%==@6;,,,7!,,,|;8;   ",
"@  #]$-;;7~@@@@ ...%%990=====99/;,,99,~!;;;((!@   ",
"@ )]$+,!~@@@@@ #.a.%%99====%299,;,,99!@@@@@@@@@@@@",
"@@#]b[,~-@@@@ +cc..a.9999==9999;,9999~@@@@@@@@@@@@",
" )$]_|7@@@@@-[|,|,,,79999&-9999!!9999@@@@@@@@@@@@ ",
"]+_|((,||![[,d6996;,,99999999999999~@@-{@@@@@@@@ #",
"|;88(;,7,;;;;!~997!!,99999999999999~~@{{@@@'@@@).)",
"e>8(;!~@{~!!~~~99999999ffff9999999999~{{{@@@ ))@|(",
"!!!!~@@@[[@@@~!99999999ffff9999999999~~{@@)#_!;8;,",
"@@@@@@@@@@@99|!!!99ffffffffffgg999999@@@ @!;8>d!@@",
"@@@@@@@@@@@99!!!!99ffffffffffgg999999,||;8e>!~~@@@",
"@@@@  @'@~!9999~~99ff999999ff999999gg99he;7~@@@@@@",
"@@@  @~~!,;9999~~99ff999999ff999999gg99;!@@@@@@@@@",
"  @ @~~,,3!999999ff999999ff9999gg999999~@@@@@@@@@ ",
"   @~~;!~~~999999ff999999ff9999gg999999i@@@@@@@   ",
").@~~!;~~~~999999ffffffffff9999999999gg@@@@_@@    ",
"# ~i@,,~~~!999999ffffffffff9999999999gg@@@@       ",
"@~@@@;!~!!!999999ffffffffff9999999999gg@@@@  @i@@@",
"@@ -|!~~~!!999999ffffffffff9999999999gg@@@@@@@i~~@",
"@ -7!~~~~~~999999ff999999ff9999gg999999  '@@@@@i@@",
"i@!!~~{~~~~999999ff999999ff9999gg999999@@~@@@@i'ii",
"i@!@{'~~~@@99996!99ff999999ff999999gg99@@@@@@i@@@@",
"@ -@@@@@@'@99993!99ff999999ff999999gg99@@@@@@@i@@@",
" ]@@@@@@@@@99;,!!99ffffffffffgg999999@@@@@@@@@@@@@",
"#+!@@@@@@@@99;!!!99ffffffffffgg999999@@@ @''@@@@''",
"@!@        %|,!99999999ffff9999999999 @@  @@@@@@  ",
"~@        .+(!~99999999ffff9999999999 @@@@ @ )#.%]",
"    ))    $-;~~99~~~~99999999999999    )  ).++)+_~",
"   .).....],,~~99@@~~99999999999999  # ))_[--[~_@ ",
"....)...]=c(!@@@@@@@~9999  9999  9999!~!!@_...%%.)",
".....]%=4+;d! @@_@@@@9999  9999@ 9999_....&%%&%..#",
"...%2*^=-,!,!    @@@@99@{    99888(99...]..%%.].).",
"2=*^^*=!,{{;@+++))   99'~  -;99||;~99...%]%.%%..$2",
"^42]_!|,'@~;+......   @@,;(>>;@   .....%%%%%1%.=*^",
"&|;!~~{@@@~!.&aa... @@@@;;>7{@    ...a%%%%<==&.=::",
",d!@@@@@@@!.%%%%.  @@ ]!|@'@@     ..c.&%%1==%a%*4&",
"!~@@@@@@@|@%%1%%)   )]](~@@@@   ).).]%%%%=**==2_|;",
"@@@@@@@@!~%==%]#)))..%+8~@@@@   ..]%%%%=*^j*.-;(,~",
"@@    @!~%===# ......0_8~@@@@@_ __-!8(;(;|[|(;3~-@",
"@@   -!~%12$  a.....]=c8;,,;;8e88(88;~!;3,;,|~~~-@",
"@'@@{{.%=$)'+.&.&].%=.,>,!!!;(!@     @!!~~@__~~{'@",
"@@  {.%%$){ .&&%%=4=-8>! _-[_).....) {;~~@ ~~~~~@@"};
