/* XPM */
static char * enemy_walk_up_xpm[] = {
"50 50 53 1",
" 	c #676D75",
".	c #697078",
"+	c #696E78",
"@	c #636B72",
"#	c #697077",
"$	c #6F757B",
"%	c #6F747C",
"&	c #6C737C",
"*	c #777D86",
"=	c #737A83",
"-	c #616672",
";	c #545B64",
">	c #4D535C",
",	c #565C69",
"'	c #61686F",
")	c #686E77",
"!	c #5C646C",
"~	c #5E686F",
"{	c #60676F",
"]	c #6D7379",
"^	c #787F86",
"/	c #646878",
"(	c #515663",
"_	c #656A75",
":	c #798087",
"<	c #727782",
"[	c #5E6471",
"}	c #5B5F70",
"|	c #595E6B",
"1	c #6F7480",
"2	c #71777F",
"3	c #586067",
"4	c #747A83",
"5	c #4A5057",
"6	c #51585F",
"7	c #585F67",
"8	c #4E5362",
"9	c #71787F",
"0	c #6B727C",
"a	c #6B6F7D",
"b	c #70747B",
"c	c #666D78",
"d	c #D82800",
"e	c #50575F",
"f	c #494F5D",
"g	c #51F0F6",
"h	c #464B5B",
"i	c #454A54",
"j	c #3E434E",
"k	c #414654",
"l	c #5F6870",
"m	c #FC9838",
"n	c #7B8289",
" .+@.#.$@ %%&%%*=-;>,'@ .).....$.... -!~~@~~{-@@@@",
" %@#.).]@.&&%=*^/(;!@@ ............. _!@ ~~~~@@@@ ",
")@@.#)#) %%%=^:*/;~@@_ .......$$].%$.-~ @!!~{-@@@ ",
"- .##)]'.%%%*:<[,;@@@ .....%%%%%%.%. ~ )~!!~@@@@ _",
"#...)##@&%%=^+},;~@@@ %]...%%%%%%%].- )-!!~~~@@-~@",
") )#)#)@&%=*+|;,@@@  .%%%.]%%%%1%%2+_-!|3!!~~@@| .",
"   )##) =4%-;;!@@@ .%..%%%%%11%%%2+,>>56!!~~~@!~))",
"    .]@.1/|;!@@@  .]%%]%%%%=====2-(6;;;7!!~~'!(@ )",
"   )]])[[,,~@@@@ ..%]%%%1=11=%==@6;,,,7!,,,|;8;   ",
"@  #]$-;;7~@@@@ ...%%%%9=====94/;,,,,,~!;;;((!@   ",
"@ )]$+,!~@@@@@ #.0.%%%%====%2=a,;,,,,!@@@@@@@@@@@@",
"@@#]b[,~-@@@@ +ccdddddddddddddddd,773~@@@@@@@@@@@@",
" )$]_|7@@@@@-[|,|dddddddddddddddd!|!~@@@@@@@@@@@@ ",
"]+_|((,||![[,e6;;6;dddddddddddd!!!!~@@-{@@@@@@@@ #",
"|;88(;,7,;;;;!~!!7!dddddddddddd!!!~~~@{{@@@'@@@).)",
"f>8(;!~@{~!!~dddd!!!!dddddddd!!!!dddd~{{{@@@ ))@|(",
"!!!!~@@@[[@@@dddd!!!!dddddddd~!~~dddd~~{@@)#_!;8;,",
"@@@@@@@@@@@@!|!ddddddggggggggdddddd@@@@@ @!;8>e!@@",
"@@@@@@@@@@@!;!!ddddddggggggggdddddd|,,||;8f>!~~@@@",
"@@@@  @'@~!;!!~ddggggddggggddggggddhijkhf;7~@@@@@@",
"@@@  @~~!,;!~!~ddggggddggggddggggddfi55;!@@@@@@@@@",
"  @ @~~,,ddddddddggddddggggddddggdddddddd@@@@@@@@ ",
"   @~~;!~ddddddddggddddggggddddggdddddddd@@@@@@   ",
").@~~!;~~~~ddddggggddddggggddddggggdddd@@@@_@@    ",
"# ~l@,,~~~!ddddggggddddggggddddggggdddd@@@@       ",
"@~@@@;!~!!!!!ddggggddggggggggddggggdd@@@@@@  @l@@@",
"@@ -|!~~~!!~!ddggggddggggggggddggggdd@@@@@@@@@l~~@",
"@ -7!~~~~~~ddddddggggddddddddggggdddddd  '@@@@@l@@",
"l@!!~~{~~~~ddddddggggddddddddggggdddddd@@~@@@@l'll",
"l@!@{'~~~ddddddddmmddddddddddddmmdddddddd@@@@l@@@@",
"@ -@@@@@@ddddddddmmddddddddddddmmdddddddd@@@@@l@@@",
" ]@@@@@@@@@#.ddddddddmmddddmmdddddddd@@@@@@@@@@@@@",
"#+!@@@@@@@@$_ddddddddmmddddmmdddddddd@@@ @''@@@@''",
"@!@        ddddmmddddddddddddddddmmdddd@  @@@@@@  ",
"~@        .ddddmmddddddddddddddddmmdddd@@@ @ )#.%]",
"    ))   dddd~~ddddmmddddddddmmdddd  dddd ).++)+_~",
"   .)....dddd~~ddddmmddddddddmmdddd  dddd_[--[~_@ ",
"....)...]=c(!@@@@@@ddddmmmmdddd    )-!~!!@_...%%.)",
".....]%=4+;e! @@_@@ddddmmmmdddd@ . !!_....&%%&%..#",
"...%2*^=-,!,!    @@@@@ @{    !(888(!....]..%%.].).",
"2=*^^*=!,{{;@+++))    @'~  -;f8||;~ ....%]%.%%..$2",
"^42]_!|,'@~;+......   @@,;(>>;@   .....%%%%%1%.=*^",
"&|;!~~{@@@~!.&00... @@@@;;>7{@    ...0%%%%<==&.=::",
",e!@@@@@@@!.%%%%.  @@ ]!|@'@@     ..c.&%%1==%0%*4&",
"!~@@@@@@@|@%%1%%)   )]](~@@@@   ).).]%%%%=**==2_|;",
"@@@@@@@@!~%==%]#)))..%+8~@@@@   ..]%%%%=*^n*.-;(,~",
"@@    @!~%===# ......9_8~@@@@@_ __-!8(;(;|[|(;3~-@",
"@@   -!~%12$  0.....]=c8;,,;;8f88(88;~!;3,;,|~~~-@",
"@'@@{{.%=$)'+.&.&].%=.,>,!!!;(!@     @!!~~@__~~{'@",
"@@  {.%%$){ .&&%%=4=-8>! _-[_).....) {;~~@ ~~~~~@@"};
