/* XPM */
static char * gimp_temp_83263_xpm[] = {
"96 128 44 1",
" 	c None",
".	c #ACBBBE",
"+	c #262626",
"@	c #4D5D80",
"#	c #475877",
"$	c #8B999C",
"%	c #889699",
"&	c #818E92",
"*	c #909EA1",
"=	c #94A4A8",
"-	c #909B9E",
";	c #869598",
">	c #91A0A3",
",	c #86989A",
"'	c #C4D3D5",
")	c #4A5A7C",
"!	c #849295",
"~	c #8D9CA0",
"{	c #8EA0A1",
"]	c #506186",
"^	c #889496",
"/	c #98A6A9",
"(	c #99A9AC",
"_	c #79898D",
":	c #485679",
"<	c #47587A",
"[	c #95A8A8",
"}	c #505E83",
"|	c #475678",
"1	c #516288",
"2	c #445373",
"3	c #3D4D6B",
"4	c #4E6084",
"5	c #3C4B67",
"6	c #7D8C91",
"7	c #77888C",
"8	c #768589",
"9	c #78868B",
"0	c #7E9093",
"a	c #707F82",
"b	c #485676",
"c	c #738285",
"d	c #8CA09F",
"e	c #414E70",
"...+@@#$%&$$$*$=-$-*;$$$$>,>'......+@@)$$!*%~*%$>$$%*$!~${$$'......+)@)~$$%%$*$$>>~$$$~,*$%>'...",
"...+@@])%!${~*$%$$$%;$~{%$$~'......+@)))^$$=$~%$$~$;*$$,=;$>'......+))))*$^$%%/%~>$$&{$$>$$$'...",
"...+)]))%$$;$~$$~$%$$${$$*$$'......+))@@$>$~%~$$~$$$$$~$$~>*'......+))#)*$$$>*$$$$$$$>=$;;~$'...",
"++++))))@$$~$~%$>,^%$,$>>$$=++++++++))]@)$>$~(%$~$>;~%$>$>$$+++..+++@))))=>$~{~$$!*${$~$%^*$++++",
"))@)))))){~$*${$$$%^$$$$~$$;$))@)@@))]@));$%>%~$~^~$$$$>%^$$~@'..+)@)@@@@~$~*~~~_>*$$$,~=&,$!@))",
":))@))))@*;$$$$~{$$>%>>$=~;$>$)@)@@)@)@@]$>$%$$*%%$$$*${$$$>%$'..+@@)])@<~,~*~{*!,$$;$~{~%$>==@:",
")@))@)])@~%~=~~$%$$$$$$$[*~$>$}:@@@)):@|)*>$$>=!~;$$$%$$$$$$$~'..+1@))@#<%!~~;~~$=~$~$%$;$$~~%))",
")))))))]@$&~;~$,%$>;{$$,~,!*=$$@@@)23@#42$$$$$!>;$;$%~**$%$$,>'..+)@)@:)@~=~,~%^*;~%=$~~$&*=~%~@",
"))@))@)@)$$>$~$$$~*=*%~~>$~$$~~$)#5222232_~$$%*$$$~$&678_;>{**'..+:@)):@@!~~%=%$$*$$$$$$*$**$~/=",
")@@)4))));$$$~$>$~*~$~~~>$$~$>$~#@2))22)@$,{{~%$~99___0a_$$$~>'..+@)@))))~%=%~*~%$;$$$$>%=$~$%%~",
"$])))))1@$;$~$$%,;$!=~$~$,,~$=$!$@@@b@))@$%$%$^=$%$^{$$8__$>$$'..+)@)))))~!=$^$**/$$$$$$$%=$*$$=",
"$$$$,$$>$$,~$~{~~%;==~%~,~*%*~$=${%$%&$~>$;%%%$*~^***{_&_{$$$>'..+@1)))>~$%^^~$$$%/$$$$$$~=$$>$~",
"$*%$$[$$$*=*$;>*~~%~$>[$-^*->~$$;$;$$$*$$$$%%=$$~$*$$$6$$$=>%$'..+@@@<@*~~$$~*$~;~~*$%*%,~~$~!~$",
"$$$%$$$$$;%%~$$*~~~*$$>>$*%>~*>$=$$$>*$$>{$$*>$$~$$*>$,*$%*$$$'..+)@)@@$$%&$^*$~^=~$*$~%*~~$$~*~",
"%$$$${~{%~%!==*$$=~;;$$^%$$%%$$~;$$=$$%$$($=!$%*>$>$$$$$,-$>$!'..+@@))@%~$=%*>($>$*$%%,~~~%~%$%{",
"$$$%$>$$>%*~$&~$^~$~>$>$>$;$$$$$${=~>$~^*$~$%/*$>>%%$;$$$$$%$!'..+}@))@=>$>>$*$*%~=*$>~~$$%~$~~$",
"%>$*{$%$$$~%%~$&*%~$^~$,$$%%$;^$~,!{~,>$${=%=%*$%$**>$~$%~$,!$'..+))}}@$$$$$~~%$~%$>,$$$**$$%$$$",
"$$*$>$$$*~~,$~$~*>~~$$$$$$%>$$[$~$^~$~*$%$$,$*$$*$~$$!%~$,$$>$'..+)@@)}$%~%$$~~%$$,,$;*$>$%$$$$$",
"$=;>$${%$~$*~%$~$%%>$!$[=~$*{$^$~~,$~$>$$~%$$$%>$*$-$=$>~$*$=~'..+)):@)*,~**~~$$$$*;{;$>>$$$$>$>",
"$~$$>*{>$$$*$~%~$$>*~~$$=$~>*%$>$$$>$;$$$>%>$$!*$>$$$$!*~;$$$$'..+1))@)~~$$~$$*~,;*>$~$*$%>*>$$$",
"%$~{%$_7*>^$*$>=$$$$*%$%$*~$=$~**%$$*%>**%$*%%$$*$>=$*~$%,%$$$'..+@@@))$%~~&$$$$%;~~$*$$%~$>~=&$",
"~={~{>_{%>{>~!>>$>$$-$*>=%$$[$~~*$~;*$$$~~$/*!$$!$$^*~$^%~$$~>'..+@)@@)$^$*~$*${,~*$~$$;$$$*${~$",
"${$;>^!_*%%$$>%***$>>*$$>$~*%~$%~$%>^$$$$$$$>-^%*$;,*$$$$$$~$$'..+)@4)@&~$*=$$$$%~$~%~$;=~*~$%$$",
"*$~$%$__>$;>$$$$>$~*$$%$$~%,~$,~%;$$$$>$***$%$$$,%$%>%{$>$~$$%'..+):)))$=$!$*$!$>~~{~$$$!>>$$$~$",
">=$$$~a_$__$$${$$$>%$$~*{>~$*%~%%$>>%-&-~$*~$~$*~~*$>$$$;;;$!$'..+:@)@@>%>$%$>>;>~,~$>$!$$$$${>,",
"$$=$~;a7$c>$$$%;~>$%>&$>{>$*>$*%;$=$*$$&**~!!~$%$&$>^%%*$~*~>$'..+<@4)4$!>$*$$$$,%>$$%{,>>$$$$$^",
">$$$%67c8>*$*~$%$$*${~$$$$~*%$>$~=$%!$$$~~!$~=,>$$>$${$$$>~~$&'..+)@)))$=%$$~=~$$%$$~${$$*%$>{,$",
"{$$-$%~$_*$$*$%$%>*$*=$*~***$$;$*%*$$$~&&~$*%>~$$*>${$,$*$%$!;'..+)@4))%~*~***$$$$*>${$$$~$~$[{^",
"'''(%%$$>$$$~>!~$$$%$$*(~~~='''''''(~>$$^;~%*$~~;$~~$$>~~$>$'''..+((@))%$$~%*%^*$$>~${{$>$>%''''",
"((.+)~$%$%*$~~$$$>$$&$$>**;$'(((((.+:%$%%$%%~~%$%=&~{>$;~$$$'(((((.+))4>=!*~$$!~{~$!$${$*$>$'(((",
"...+))$$$*{$~$*$$$$^$>$=$$$%'((....+))$%$*$*,$$~$%$$>;,$$***'((....+))@$$%$$~;~$$$~$>d!$$->%'((.",
"...+}}*$~>$~>,*>{$;{$$$*-$$='(.....+@)~~>$~$;~{>{>$~$$$~>^$~'(.....+@@@>$*$~$$*$!;$$$>${*$>$'(..",
"...+)@)$%**%{$$$*$~$$,>$$$$$'......+))@%%*$>$>$$%=$$%$$[{*$$'......+)@@>{$$$$>$$$$$;~$>$~{**'...",
"...+))))$$=$~~!>=$~==[>$$*$%'......+))))%!%$$$~*$${$$${$$={,'......+))))$$-$>$$${$$$$$$,~$=$'...",
"...+@)@@$$$*$$$%~%$$$&;!%%$$'......+))@)$=*{**%=**~~$$>>$~={'......+)@@4$;$$$%**>$>{$>~~$$&$'...",
"++++)))@1$$>*>$$$$;~%$$;$$=%++++++++))@)@$$$~>~$$$%~{-;$>$$~+++..+++@)))@$>$$$~$$$$$$$;,%,=~++++",
"}@]@)))@)$$$=-$$$*$$%~%~$$=*$@#)))b1@)@)@~~*~~~;$,$%,~~,%;!~$|'..+))@)@@]$=$$/%$~%>$$$>$%*~>$)b@",
"))])))@)@$$*$$$%$%*$%,,%${>;$*)))#))))@:),~*~%~,$>*$%!~~=$$$>$'..+@))):))$$$>$**=$>$$=>~~$%$$$):",
"@}))@@)]1**$%*~=>~%~$~*=*$$$$&4)|@@]@):))~~!$$*$$$~$%%~$$$~$~*'..+@)}):))*$$*/$$$$$$>~!;^$~$$%))",
"})@@))))}$~$~~*~$$_969c*$~**->$)@@)@))})@%*%~~~**>$$$*{,!>$$>;'..+))))))]$~{**$*$$!!$$>*$$$$$$*:",
")#4@))))@>%>$$>$$>$$$$~9__*$$$>*)@}@)332e9&7a9!=~%~$~%$;;$%$$$'..+)))@})]=%~$$***%>~%~~~=$/$$$$$",
")))4)))4)%^=$$*$~>>$*$~!6$%$$$$$@@@@e222e69a9>$~%$~=~%$>>${(>$'..+)@@)]@@>*$$$%$%$/%=~$$$>$=*$^$",
"$))@@)))1$>=*$$$$~$$>;_$$%*$>%$$$)@322#2299$~%,~$~~$=~~>$,$%$$'..+b))))))$*$$$$=$$>*^*%$$$$$$*$*",
"*${$$$%$%>>$$=$!%=$>$$~~*$%$${$*,>*$~{$$$~$~~~=%~%!*,%**$$$$$*'..+)b)@)*>$>$*>$**$$$$~~~$%>$*%!$",
"${$$^%;$~;~$>$$,$$$$$*%$$$~%$=$>~$$&!*${$***$*%$*$$$~^$*$~$$=$'..+))@@@-$$$$^$!*&=~$~$$*%;%!%$~$",
"$%>$,~$*%$$$$$;$>!$>$$>$*=*$~>>~%%*$~$$>$$$*&**%%%*~$~$*>$*{>$'..+)@@@@$$$*%~$$$,$$$$***^-%~$$!$",
"$$$$*~$>$$$~$>{*$$=$$$$*%%*~~,{~;$$>,%%>$$$$$$>~$~^$%*$$*%~$$>'..+)@)))$$*$>*$;$~$$$$=$!*~~$~$*;",
"*{$$%${=!;~=$$%%-%$$~$*!$$>%,=,{;$%$>>$*$$%&**$&~~*~~!~~%~>${$'..+))))@%$*$$$$>~$$$*;;~$$=$~$$~%",
"~,$$,%~{*~>$$$$$$%$*$!**$,$*~%~~$$>$*~%/$$$$$$$*~>$~$$$~$>%$>%'..+}}]))^$$$$$*$$$;$$,{*$>$%$~%%>",
";$~%~$,=$~~%**!$/!$~$~~$>$%$$>~>${-=%$$&$$$*-${$%$>=,~~{$$%>$$'..+@}))@;$$>$~$>*;;>$~$~%=*%$%~$$",
"%$~~~,~$$$$~^^$$$%/%$=$$$$${$$$$>$$$$$=~$${*$~$~%$$$~~~~%$&~~;'..+})b))$$-%$^>**{~$$~=!%$>$*$$$$",
"$$%~;$~$$>$$$$,$%$~%%$>~$;{*~~${%$$$>~%{$!*$$$$$>~{$%~~,${>$$,'..+@))]@>$$$*;**$,$$^~~$~$$$*,~,$",
"${$$$${%^;;$$$~;$$$$$$,{$$(~!~=%*>%${;$=$!~$=>$>=$~>$%~=$$>$$~'..+)@@@)>$$>%~$$$!$&^$$;^$>~$$>$~",
"$$$=$,$${$$~$~$~&$$~~$$$%=$;$$%%*^*;%~*$*%*$$$*$$%*_79a7;%>$>$'..+@)@@)$~~$^%~,~/~{$$$%>;!~$$%~~",
"$~$$${$>$$%>%*~>$$$~=;>~,~$~{$%~,==**(*$*~~>$$>>>*>[%$%~$$$%%$'..+))}@@%$%$!~~$!~$==$$*%$$$;&%=%",
"$$$$$~~=$%$=$$$,$$;*;;$~~~;=,$~$;~-$%$$$=>$$$%%$~$>>%~~%$$>$>$'..+)@@@)%$~%=~$$~!%,$~$$%;>^$~^=$",
"$~,=>$$$>*$!~$~~$[%~%*~~=;%%$~$0~$~~$%{{~~~$$%>$*$$$$~$~>%;%$$'..+)))4@$$$>$$;*~~^%$$>*$%~*!~$**",
"~$~~~*$$>~$~$&$=$$,~;~*$*~~$=$~$~~%~$>*$!~~%%>>$*^%=$;{~$**=$$'..+4@@@1${~>*$**$$=$%*$*$$$=~=~*%",
"$$$$$$~$~~~%~>~%$$%=~$$$;~%%$*~$$$${{$%$~$$*$*$$$,$%~;$**$$>~{'..+@)b)@${,$>$>$%!%$>$~*~$~~%$**>",
"${>,$%=*~$$$$$~$=*%~${>$$%~~$>*>*$$$$$$>,$!$!$;>~~~&%^&$$;~~,~'..+)))@:$>;=$$$*$~$~,$=!>$!;~^&~*",
"'''(d$$$$,~~$~$~$~$$$~>>~~>%'''''''($$$>*$>!>%$!~;~$$$$>$$,$'''..+((@@);$%$${$;$$>$>>>$*%$$$''''",
"((.+@,$~$%$$$~$=$~~~$~$;$&$&'(((((.+@>$>$=$$$=*$*~$$$~>>,$;%'(((((.+@))!*;{>>~$$$;$$%&$$>$>>'(((",
"...+(''''''''''''''''''''''''((....+(''''''''''''''''''''''''((....+(''''''''''''''''''''''''((.",
".............................(...............................(...............................(..",
"................................................................................................",
"...+++++++++++++++++++++++++'......+++++++++++++++++++++++++'......+++++++++++++++++++++++++'...",
"...+):1)))))))))@1@)))):@@)@'......+):)))@b)@):)@)@@:@))))))'......+)))4)14))))))||@)@)|@@@@'...",
"++++):}}:})@)b)@)@))@@:|@@<<++++++++@))):])))))@@)}1)@)}@4@)+++..+++)#4)@@)))))4@@)):)@#))@4++++",
"@@)@))@))))@])))@}@:)|)))@@))))@)))@4))))])))):))@)@)1@}4@1@)@'..+))@4))@#))))@)@)))))@@<@)4#)))",
"))@)))))))@)]@)))2))))@@)@))@)@)@<@@))))))))@))@)@))))))4)@@@b'..+))4)<))@))@4|@)|@)@)):@@4)@@44",
"@)):)):))@)))):@)))@@))@)@)@@@):b)):)@)|)@@)b))1@))@@)@@)))))4'..+4))))22322<@@@@)@))@)))4))@)))",
"@)))@}1})))))))@)))@#)))<)@@@@))@@@1)))@:@@@))))@))))@))@@@)@)'..+)@@@33252|32)]@@1}|@1))))@))])",
")1)@]@))))))|))))|@))@))@@@@@<@@)|})))@)@@)))@)@@)@)@@<@))))))'..+@)@)@22223233)@):2@):))1@:@)@@",
"@@))#@)@#>>!$$$,>$$/>>~!${~~${~,@)))@@@));,{>%%%$%$$~~$%[$->$$'..+)])@@)389>>;$$$;~~${~$$*$,$$$$",
"$@@|@))@){>${$$$$$$$$$~!~,~~$;{~$):@<|@@)%{$$$$>~;,$*$>$$=%$$%'..+)))))))=~~$~>$;$~*${,>%$>~$$$$",
"~$>=~*$>%$%>{$^$$>$$$~>$$~$$>*~~{$$$$~$;,~$%$>$$;$$~>$$=$%>^*$'..+]))))$[{$$;=;~~$$^~~=$%$$$>~~$",
"!$$$%$~;$$$%$%%%$~**!*$$%*$$$$$$=$*$$$~%$$~~$$~$=$$$$--$>$*-{$'..+4)])){**>!{$>>~$$~~$$=$$$%&$$;",
"=[;$;>&{%>$%!!$$$>%-$$~%=~;$>;~**!%*~~%%$$$$$*$%>$$$>!$%({%%*-'..+)])@)$%%>,$!{$**~~$$*;>$$$>,*~",
"{$>$$~$$%%$%$=~~-&$*$%$$*>>~$$$$*$~~*$=~$$$>$$;$$>$$$$^$$$%*$$'..+4)]@@$*${%,$;$~~$$*~$>$$$$~;$-",
"$$,,~!{{=>^*%*~*$$$$!$$~%*$*$$>$~==%~~~*~~!,$$$=$$^$$$>%$$$$>*'..+@)@@@$$$>$${$;!**~$~$$~$$$%$*$",
"${$>$$%>$$!%$$>$!*$~~,>&~>~~$*${=~~$$,~~>~~$$$$>=,~,%%*%$$!$$>'..+]))4)%*,,$*;$$(^;~{=$%~**$~%*$",
"$$;$$;$>$$&$~$$$%~$*$~$$~>=$$^~>~~%=~,!~!;$*$$$$$>;~*$~%~$$>$['..+@))])>&~%!~%~~=*$$$~~=%%$$$$$%",
"~*$$$$;$$%$$%*,$~$$*~~,~=~$~*>>$$=$~${{,~$~%>$${$>~~$$~$>$*$$$'..+@@1))$$>,~~~%*$,$~%$%~$~>$$>*%",
"!>$$[~-$$>>$$%$$*%~$,~$=~$~;>$$$$$~~;~{$%~!=*>$;~%&~~!~*~!$$>$'..+)@)))-~$~>*%$;{$$$$%%~$>={$>{;",
"%>$$>->$~%$!~~%%*~!*,=~$~~~~*$~>$$$$;${^*%$$$$~$$$~~$%=%$*$>$!'..+])))){~%$>~$~$>$!*$%;=$!%$~$~=",
"$*$~$$$$~~*$$>%%~,$$~;~$;,~~$%$>$;>$%$$$~!~$>$$$%$~{$$$$>$$$%>'..+)))])$>$,*$$$%*>$~~~%~~~%$==$*",
">*%^$$$$$~%=~%~!~~!~{%$$~$~$$;$$$$$!*-$$*~~~~$$$*~*$%$;~$=$=~%'..+)@)))$!$*$$;$~$$%*~*%*$$%$=$>%",
"$~*$>$*$~~~%$~%~=~;~$_,=;=>,>$~$%$=$>>^$^*~~%$~,$~~>%*~$$$,~$*'..+)))))*!;-$$~$%>$~%&$$~;$$&%$%~",
"*%>$$>{;~~*~!~~$*$$%_8c8690;>~~%$$$>*$~~~*~~~~~~*$$$~*=$$,${~~'..+)))))$/~^%=$%$$$$$&!%,%;~%~~%~",
"*$$$*;{$~%*$~$>%~$$9c_678_9*=$%^^$=$*%**~~%~~*,~$*$$%~*$,$$~~*'..+)))))%$$~$$=~$;$$>*!*~$~%~~%^~",
"=$$$$$$$~%~%~~$~$$89767_$>!$$*$*=$$$~~%~;~~~~$$;$*~*^*$$>$$~$~'..+)))))%^~$~$;~~-!$%*~$~^$$*>~~$",
"$~$*~$~!&%*&%,$%*$a9,=$$~$$!*%$$*$%*~~~***~$%*%$*>*~~%$${>~$~$'..+))@@)%~%~~$^;$%=$$**,,*~$>=*$%",
"'''(${$$~$%${$>~%[$=>$$~*$$$'''''''(~%~~!~={%;$$~$$$$;$%>$$$'''..+((@:@*^$=~%~$$d$~$$>$~~$;~''''",
"[(.+)$$>%;$$~;$%*$$!$*$$~%>%'(((((.+:~!$~&~,~$~~$$%$$$$$$>>$'(((((.+)@@$%~~*%,,~$$$$~~$~%=>$'(((",
"...+)@*&_$~$$=%~%=~$$~$$$$~~'((....+))%!$~$~*%~$;*%*$>$*{$$$'((....+)))$~^~~~$**{>[;>%!*!~!~'((.",
"...+@@$$${~$$%~%$*>$~$$&$$;$'(.....+@)~~~%~=~=~%$^$^^>$${>%{'(.....+))@%$$$%*$$${$^>~;~&%>~%'(..",
"                                $$%$$%*$$=$%~${{~~$($*>^$~~;~~**                                ",
"                                ~$~^$$$$*$>$$~$,$;$~$$$$~*~%,$~~                                ",
"                                ~%$~%~*$$$>$*$$>{~*=*${$=,$~~~;~                                ",
"                                *!;~$~~*>*%%$$=>~*$~^&,>$$,$~~,$                                ",
"                                ~~;$$$$%%$^$$$*-%$$&$$$,$~$*^!$~                                ",
"                                !*%~;[$=>%$$$$%~%-$~$$$%$~*~%=~*                                ",
"                                ,$%$$$;$${,$$$>/$$=$$%$,~~%$*~~%                                ",
"                                %=~$$>$&>^$$$=$$$=>$$>$$$*$~~~~,                                ",
"                                {~*$>$,%$${*{!>,$~$~~$~~~$%%*%*,                                ",
"                                ~*~$$>[~{>%%,^$%$$$=;%%~~~$$$~*~                                ",
"                                ~$$~$~!$$~$**$$[$>{%~~~*~~~~,%~*                                ",
"                                $$%/*>$$$,*$;$$>%$$$~~%$%$~%~*~~                                ",
"                                $*>$$$%%>%$~${$>$$!$%*,~*$&%~~%,                                ",
"                                ~*$%&*=~~$*,>>,;=$%%~$*%%~$%%~!~                                ",
"                                $$$%*%~~~%*~$$>$$*!=%%~;~~,~%~;~                                ",
"                                ^%~**~$$%%>~$$>$!~$=!;{~;!~~&~$,                                ",
"                                ,${%=%;~,>$$%!$$$%$~*=%$$%=~^%*$                                ",
"                                $${%$$*%~=*!$$=$=*%$*$$%=$~%=$~%                                ",
"                                {;$$>~;~~~>$~%$~>$>$>~~$%~~**~$%                                ",
"                                ~$$%$$$~$!~$$%$~%~;*~$=$$$%%^!$$                                ",
"                                *$%*~*$$%~$%%%;$${%$$$~$$*~$$*$$                                ",
"                                %%;$%*^;*>%$*$$>=%!$*=~$~~~$$~%%                                ",
"                                ~%$~$$~%$;${%^$$!~$%~$~~%%^*~^$$                                ",
"                                ~$$%~$^~$$$$$${>;~~$$~~%~$!~%$$$                                ",
"                                ~>~$,~~$$%~^$~~~$~%$~$%*~%~$~***                                ",
"                                $~~;*$$$*&~~$&~!$$*~~%~*~~%$~%*$                                ",
"                                $$,~~>$$~$^~$-~**~$>%=~^%~~*=%$^                                ",
"                                ~$%;~$=*$$$~%~%$$=**>%$~!~%~$$*$                                ",
"                                ~;,&$$,,$%$*>$>!!$$$!$**;**${>$%                                ",
"                                $$;~~$$~&$$**%~$%$$$$~>*~~~~;$;%                                ",
"                                >$=~;,~~^;^;$>{$>$$$%!%$,$=~$$%*                                ",
"                                $~>!,${$$$&{>$$${%{>$%%>$~~~$>>!                                "};
