/* XPM */
static char *a11082bc286c453084da7646f64787de7JtVXeLyU2HUrWO7[] = {
/* columns rows colors chars-per-pixel */
"50 50 146 2 ",
"   c #010101",
".  c #080707",
"X  c #110E0F",
"o  c #151214",
"O  c #1A1416",
"+  c #1D1619",
"@  c #1F181B",
"#  c #231B16",
"$  c #20171C",
"%  c #231B1E",
"&  c #281C1F",
"*  c #2C221B",
"=  c #32261E",
"-  c #35281F",
";  c #251C21",
":  c #2B1E23",
">  c #301F23",
",  c #2F2026",
"<  c #2E2028",
"1  c #342226",
"2  c #382327",
"3  c #362920",
"4  c #392A21",
"5  c #35232B",
"6  c #3C252B",
"7  c #352433",
"8  c #3B2732",
"9  c #3E2834",
"0  c #3D2A3B",
"q  c #40272D",
"w  c #42282F",
"e  c #413126",
"r  c #422A34",
"t  c #4B2D36",
"y  c #452C3B",
"u  c #4B2E3C",
"i  c #502F3A",
"p  c #4F303A",
"a  c #52323C",
"s  c #55323C",
"d  c #55323F",
"f  c #55343F",
"g  c #59343F",
"h  c #452D42",
"j  c #4A2E43",
"k  c #4C2F48",
"l  c #4C3040",
"z  c #4C3143",
"x  c #4E314A",
"c  c #503141",
"v  c #553340",
"b  c #563342",
"n  c #573542",
"m  c #513246",
"M  c #563446",
"N  c #593543",
"B  c #5B3747",
"V  c #5C3644",
"C  c #5D3846",
"Z  c #52344D",
"A  c #57374D",
"S  c #5C3749",
"D  c #58364C",
"F  c #5E384B",
"G  c #5F3A4C",
"H  c #553651",
"J  c #583751",
"K  c #573852",
"L  c #5B3A53",
"P  c #5E3A53",
"I  c #5D3C5A",
"U  c #603A4C",
"Y  c #633C4E",
"T  c #643C4F",
"R  c #663E52",
"E  c #613E57",
"W  c #673E54",
"Q  c #683F54",
"!  c #633E58",
"~  c #633E5A",
"^  c #653F59",
"/  c #623D61",
"(  c #6A4055",
")  c #6B4056",
"_  c #6D4157",
"`  c #65405B",
"'  c #66405B",
"]  c #65415C",
"[  c #67415C",
"{  c #69425E",
"}  c #644261",
"|  c #6B4360",
" . c #6C4564",
".. c #674268",
"X. c #6C456A",
"o. c #6E4B6B",
"O. c #704766",
"+. c #714867",
"@. c #70476C",
"#. c #754969",
"$. c #734B6C",
"%. c #784C6D",
"&. c #6F4770",
"*. c #754D73",
"=. c #794F73",
"-. c #784F7B",
";. c #765274",
":. c #7A5176",
">. c #7D547B",
",. c #7E597C",
"<. c #80567E",
"1. c #815D7E",
"2. c #7E5680",
"3. c #845B83",
"4. c #895F87",
"5. c #875F88",
"6. c #866286",
"7. c #8A6187",
"8. c #8C638A",
"9. c #8F6B8F",
"0. c #91658E",
"q. c #8D6591",
"w. c #926791",
"e. c #936A94",
"r. c #996B95",
"t. c #956D99",
"y. c #9B6E98",
"u. c #977E96",
"i. c #97709B",
"p. c #9A739E",
"a. c #987F98",
"s. c #9D76A0",
"d. c #9E79A2",
"f. c #A37CA6",
"g. c #A67EA9",
"h. c #A87FA9",
"j. c #A681A9",
"k. c #A982AB",
"l. c #B094AF",
"z. c #AE8BB2",
"x. c #B28DB5",
"c. c #B491B5",
"v. c #B693BA",
"b. c #BCA0BB",
"n. c #C5A7C4",
"m. c #C8A9C7",
/* pixels */
"; % % % % % % % $ % ; $ % $ ; % % % % % ; % % % ; % % % % % ; % % % % % O % % : % $ % $ % % ; % % ; ",
"% ; 1 6 1 % 1 1 1 1 1 1 6 6 % : 1 1 1 6 6 % : 1 1 1 1 1 : % 6 1 1 1 1 : % w 6 1 1 1 1 1 : $ 2 6 > % ",
"; ; q g r : r t u a p u a u : w t u a a t : r t u a t t 6 : a a a u t 6 1 d a u a a u t w : i d 6 % ",
"% : 6 d t 1 u n B n N n n d 1 t a v f C a 5 p n n n n n t 5 B B d v a r 5 N n n N n B n t 1 a i 2 % ",
"% % % : 1 r U R R G Q R _ S 5 B Y W Q _ B 8 B R T R Y R v 6 U ( Q R Y c 5 R ( R Q F R R B 6 1 : $ % ",
"% % 1 r t F c u y y u l u 8 : r u u u y 5 1 r u u u u u r : 8 y u u u 8 : r l l u y y u M B t w : % ",
"% % 6 p N Q 9 9 : 5 8 r r r 8 8 r r u 5 : 5 r 9 r 8 r 9 9 5 : 8 u r r 8 8 r r r 8 1 : r u R n t 1 % ",
"% % 6 a B Q 5 < 8 D { ^ ^  .E ! [ | #.u y ! ' ^ ^ E ^ ^ [ P 8 A #.{ ' E !  .! ' ' m 8 : y R B u 1 % ",
"; % 6 d n U 8 8 Z { $.$.=.%.$.$.$.=.=.l m  . . .$.%.$. .$.| j L =.=.$.$.$.%.%.$.$.! m 1 y F n a 1 ; ",
"% % 6 d B ( 8 y  .$.%.=.=.=.*.=.*.*.:.l A $.$.*.:.=.:.*.$.$.j L :.*.*.=.*.=.=.=.$.$.' 8 u Q N a 1 % ",
"% $ 6 a n Q r u | $.:.:.:.=.=.>.>.>.3.Z J X.>.>.>.<.>.>.:. .x ! 3.>.<.>.=.=.:.:.=.$.' r l R n u 1 ; ",
"@ % w a B _ r u { =.=.:.>.:.3.3.>.<.0.L I =.>.>.>.3.>.>.>.*.A  .8.>.>.3.3.:.>.:.=.%.! r p ( n a 6 % ",
"O : t d B U 5 l +.*.=.=.>.3.4.4.4.7.w.K  .4.8.4.3.8.3.8.8.3.I } r.4.4.4.4.<.:.=.=.%. .r r R N d w O ",
"$ O : 1 5 5 : y | %.*.:.3.7.0.7.7.0.3.l  .7.8.8.8.8.8.8.8.3.L K 8.8.7.7.w.4.3.=.*.$.! 8 : 5 5 1 % ; ",
"; @ : 6 r c 5 y [ %.:.>.3.8.>.x Z Z x y j I h 0 Z Z x 8 x K h y Z Z Z Z 7.4.3.>.=.$.E 8 8 c r 6 : % ",
"; % 6 u c R 9 u  .$.=.<.>.8.>.Z *.=.=.:.>.0.I x *.=.X.h $.8.:.;.:.=.X.Z 7.4.>.<.*.$.' r u Y a t 1 % ",
"; % 6 a n W 9 u O.=.*.>.<.8.,.H 3.e.t.e.p.k.o...w.p.8.I 1.k.p.e.t.e.*.Z 8.4.>.>.*.=.{ r u R v u 1 % ",
"% % 6 a n ( 9 Z %.=.:.3.0.y.>.A 3.t.e.t.s.k.o.X.t.s.q./ 3.k.p.t.e.t.:.Z 8.r.8.3.:.=.#.u u Q d a 1 % ",
"% : 6 d B ( 8 y L L I '  .[ x j 3.e.t.p.p.g.*.*.s.f.i...4.f.p.p.t.e.;.y K }  .! L L A 8 y ( B a 1 % ",
"; : w a C U 1 : r j j Z A ! Z x 4.p.p.p.s.k.;.=.s.g.i...6.g.s.p.p.p.:.h L I A x j j 8 : 8 U B a 6 ; ",
"; % & 1 5 6 : 9 !  .X. .=.4.;.! r.k.j.f.k.c.,.-.s.j.t.&.9.x.g.f.k.k.8.K 3.3.*. .$.| P 5 : 6 5 : % ; ",
"; % > w t v 6 u  .$.*.:.>.w.:.H ;.3.3.6.8.e.*.>.d.z.p.*.,.9.6.4.3.1.$.x 8.8.>.:.$.$.[ 9 r v t 6 : % ",
"+ % 6 t B R 9 u {  .:.>.>.w.:.7 x / / ..X.*.*.q.z.x.k.3.*.&...../ I h 8 8.8.>.>.*. .^ 9 u R n t 1 % ",
"o % 6 p n R 9 u | $.:.>.>.4.,.x =.8.e.p.t.i.p.c.n.c.m.k.p.t.i.i.q.8.X.x 8.3.>.>.:.$.^ r u Y n t 1 % ",
". % 6 d n Q 8 y { *.:.<.4.w.,.H 2.p.f.f.j.k.z.v.a.0 l.x.z.j.g.f.s.p.=.Z 8.8.3.<.=.%.E 8 u R n a 2 ; ",
"X % 6 a n R 9 u { $.:.>.<.7.,.Z >.e.p.s.s.s.d.v.b.u.n.z.d.s.s.s.t.w.*.Z 8.3.>.>.:.$.^ r t T n u 1 ; ",
"+ % 6 t B W 9 u {  .:.>.>.0.:.8 K X.X.=.*.>.>.t.v.v.c.q.>.-.=.*.X...x 0 8.4.>.>.=. .^ 9 u R n t 1 % ",
"% % 1 r a S 8 u {  .*.>.>.r.;.h } o.$.;.;.,.X.2.d.z.p.*.*.,.;.*.$.o.I h 8.8.>.>.$. .' r r B p r : % ",
"% % % 1 5 8 : y { X.$.o.:.8.:.} y.k.h.g.k.v.,.>.s.k.i.*.e.c.k.g.k.k.0.I 7.4.=.X.$. .! 5 1 8 5 : % @ ",
"% ; q t v v , < u m A L I @.I x 5.s.s.p.s.k.;.=.s.j.t.X.8.k.s.p.s.p.>.j  . .I J A m y : 5 B a t 6 % ",
"% % q d U _ 5 8 l l l Z L H h j 3.e.t.p.p.g.;.=.s.f.p...6.f.p.p.t.e.:.y l K L Z l l u 5 y _ C a 6 % ",
"% % 6 a n ( 9 D %.=.>.3.0.w.;.Z 3.t.e.t.s.g.$.X.i.f.e./ 3.j.p.t.e.t.=.x 3.w.0.3.:.=.#.u u Q f a 1 % ",
"% % 6 a n ( 9 u +.=.*.>.3.0.1.H 3.t.t.e.s.k.o.X.e.p.8./ 3.k.p.e.t.e.=.Z 0.7.<.>.*.=.| r u W v u 1 % ",
"% % 6 p a R 9 u  .$.*.>.>.8.:.Z :.3.3.3.5.y.} H >.2.=.x ;.r.4.3.3.3.*.x 7.4.>.>.*.$.[ r u Y a t 1 % ",
"% % 1 r u D 6 y { $.:.<.3.8.>.k Z H Z j x } h 8 Z H x 7 H ! x j A Z Z x 7.4.3.>.=.$.! 8 r B t w : % ",
"% O % , 1 5 : y [ %.*.:.4.7.8.>.:.1.;.h I :.;.:.,.,.,.:.:.;.Z x >.,.>.>.0.4.3.=.*.$.E 8 : 5 1 : % ; ",
"+ : r u n B 1 l +.%.:.=.>.3.7.8.8.0.w.H @.8.r.0.7.w.4.w.w.4.! [ y.8.8.8.7.3.:.=.=.%. .r 8 S d u 6 + ",
"+ & r a B _ 9 u { :.=.:.>.>.4.3.>.3.0.L I :.>.>.>.4.>.>.>.=.A  .0.>.>.3.3.>.>.:.=.=.^ r u _ n a 6 + ",
"% $ 6 a n Q r u | $.:.=.:.=.:.<.>.>.3.Z L o.>.>.>.<.>.>.:. .Z ' 3.>.<.>.:.=.:.:.=.$.^ r l R n u 1 ; ",
"; % 6 a B ( 9 y  .$.*.:.=.:.*.:.*.*.>.l A $.*.:.:.:.:.:.*.X.j I :.*.=.:.*.=.=.:.%.$.{ 8 u Q N p 1 ; ",
"; % 6 d n U 8 9 P  .$.$.:.%.%.$.$.=.=.l m X. . .$.*.$. .$. .j L =.=.$.%.%.*.=.$.$.{ D 5 y G n a 1 ; ",
"% % 6 a B R 5 < r P  .| { +.[ {  .+.%.l u { { { { { | {  .! r L %.O. .[ | +.{ |  .Z 8 : y R B u 1 % ",
"% % 6 p B Q 9 9 < 9 y u u l y y u u D 8 < y u u u y u u u 9 : y Z u u y y l u u y 8 < 9 u R n t 1 % ",
"% % 2 r a U y 9 5 8 9 r 9 1 : 6 9 9 9 5 , : 8 9 9 8 9 9 6 : 1 8 9 9 9 5 : 5 r r 8 8 5 9 c U u r 1 % ",
"; % % : 5 t U Q R U ( Q _ B 5 D R ( ( _ v 8 S W R Q R R v 6 U _ ( W R c 5 U _ Q ( U Q Q F r 1 : % ; ",
"; ; 1 t r 5 a B B n B n B n 1 u a n n U v 5 a B n n n B t 5 C C n n c r 5 B B n B n B N t 1 t r 1 ; ",
"% % w V t : r p a d a a a u , r p a a d t 1 r t a d p t w 1 a d a a u 6 1 d a a d d a p r : d g 6 ; ",
"O % 1 w 1 % 2 6 6 6 6 6 r r % 1 6 6 6 q q % 1 6 6 6 6 6 > & w 6 6 6 6 : & t w 6 6 6 6 6 1 % 6 q 1 % ",
"X % : : % % % % % % % $ % % ; % % & & : : $ % % % % % % % % : % % % % % + : % : ; % % % % % : : : ; ",
"  X $ = = 3 3 = * 3 4 # = * e 4 = = = - 3 3 = - 4 = - 3 4 = 3 - = = 4 3 # = = e 3 = 3 = 3 3 3 = 3 4 "
};
