/* XPM */
static char *_1ae82da1f9e4f97c5ebea2294dd742fZebrR3bGYBc7ECNU[] = {
/* columns rows colors chars-per-pixel */
"50 50 230 2 ",
"   c #272827",
".  c #282827",
"X  c #29292A",
"o  c #302D2F",
"O  c #37342C",
"+  c #2C2D36",
"@  c #382B35",
"#  c #323334",
"$  c #353739",
"%  c #38393C",
"&  c #472E38",
"*  c #522F3F",
"=  c #48333A",
"-  c #53313D",
";  c #44452B",
":  c #4B422A",
">  c #584B2A",
",  c #59512A",
"<  c #574939",
"1  c #514D3A",
"2  c #6B5730",
"3  c #6C6729",
"4  c #766929",
"5  c #797728",
"6  c #65663B",
"7  c #796737",
"8  c #777535",
"9  c #3B3E41",
"0  c #553342",
"q  c #693846",
"w  c #793C47",
"e  c #6C3552",
"r  c #793A59",
"t  c #3E4245",
"y  c #3E4248",
"u  c #414447",
"i  c #42454A",
"p  c #46494E",
"a  c #4A4A49",
"s  c #554B47",
"d  c #5A544A",
"f  c #464B53",
"g  c #474C57",
"h  c #4A4D54",
"j  c #5A4C53",
"k  c #4D5256",
"l  c #4D535B",
"z  c #575657",
"x  c #51565D",
"c  c #5C5B5C",
"v  c #6E474B",
"b  c #6D4D4F",
"n  c #794153",
"m  c #665A57",
"M  c #755A56",
"N  c #786443",
"B  c #6C615B",
"V  c #796757",
"C  c #4E5460",
"Z  c #515762",
"A  c #555B65",
"S  c #595E65",
"D  c #575D69",
"F  c #595F69",
"G  c #564D71",
"H  c #7D4962",
"J  c #715B66",
"K  c #576066",
"L  c #5A6166",
"P  c #5C646C",
"I  c #5E686F",
"U  c #5F6570",
"Y  c #5F6970",
"T  c #6A6463",
"R  c #60666E",
"E  c #60686F",
"W  c #786A66",
"Q  c #7D776D",
"!  c #616771",
"~  c #636B72",
"^  c #686E77",
"/  c #696F78",
"(  c #697077",
")  c #6C727A",
"_  c #787575",
"`  c #71767E",
"'  c #876F2D",
"]  c #987B27",
"[  c #866838",
"{  c #9D6A3C",
"}  c #DF6B35",
"|  c #EF6A3A",
" . c #843B51",
".. c #893D5B",
"X. c #8C3D63",
"o. c #8F5049",
"O. c #8B714A",
"+. c #875668",
"@. c #944C70",
"#. c #A84777",
"$. c #B55D75",
"%. c #946C6F",
"&. c #89746D",
"*. c #867976",
"=. c #9D7A79",
"-. c #A86D75",
";. c #F05448",
":. c #F06653",
">. c #91901C",
",. c #ACAC17",
"<. c #ACAC18",
"1. c #BDB518",
"2. c #8F8726",
"3. c #979724",
"4. c #A78626",
"5. c #B48B28",
"6. c #B99527",
"7. c #B19132",
"8. c #BAA723",
"9. c #CAB71B",
"0. c #E4BD1E",
"q. c #C49C26",
"w. c #D9952B",
"e. c #C7A622",
"r. c #CCAC2C",
"t. c #DBB322",
"y. c #DEBA23",
"u. c #EAB126",
"i. c #DFDE0D",
"p. c #C7C613",
"a. c #D8C818",
"s. c #E4DF0C",
"d. c #E6C81B",
"f. c #E8D515",
"g. c #F3D418",
"h. c #EDE60C",
"j. c #F4ED09",
"k. c #F3F105",
"l. c #F8F801",
"z. c #ECE815",
"x. c #F4E211",
"c. c #CAC321",
"v. c #F8F431",
"b. c #9D8147",
"n. c #9B885D",
"m. c #AB8B4A",
"M. c #82816D",
"N. c #89817D",
"B. c #95827C",
"V. c #A88C75",
"C. c #EFA05F",
"Z. c #F1D351",
"A. c #2D358A",
"S. c #2D389B",
"D. c #2F3DBE",
"F. c #353FBE",
"G. c #563985",
"H. c #3F43A8",
"J. c #717780",
"K. c #737A82",
"L. c #787E87",
"P. c #6C45B6",
"I. c #3140C8",
"U. c #5243C3",
"Y. c #7D55C4",
"T. c #AF4985",
"R. c #BA5486",
"E. c #8C6D8F",
"W. c #AC6B90",
"Q. c #B97899",
"!. c #8A51B6",
"~. c #AA4BA5",
"^. c #C9538E",
"/. c #D75A99",
"(. c #D2629B",
"). c #CC57A4",
"_. c #D86BA4",
"`. c #CE77A6",
"'. c #DA79B8",
"]. c #E36BA9",
"[. c #ED7DB9",
"{. c #895CC3",
"}. c #8C8786",
"|. c #968C89",
" X c #9C9091",
".X c #9B9796",
"XX c #B09089",
"oX c #A79996",
"OX c #BA9B91",
"+X c #ABA29E",
"@X c #BBA59C",
"#X c #B8A9A5",
"$X c #B7B0AD",
"%X c #B6B3B3",
"&X c #BCB5B5",
"*X c #C39D91",
"=X c #F5978E",
"-X c #C9A69B",
";X c #D082AC",
":X c #E986BE",
">X c #F084BF",
",X c #C5ADA5",
"<X c #D2AEA1",
"1X c #C8B3AC",
"2X c #D7B3A7",
"3X c #C8BAB8",
"4X c #D7BCB3",
"5X c #FAF39C",
"6X c #C5C0BF",
"7X c #D5C0BA",
"8X c #DCC4BC",
"9X c #E7C5BA",
"0X c #F1C7B9",
"qX c #FAE7B3",
"wX c #D886C4",
"eX c #E58CC4",
"rX c #F38CC6",
"tX c #F694CC",
"yX c #F898D0",
"uX c #C9C7C7",
"iX c #D9CAC7",
"pX c #D7D1D1",
"aX c #DBD3D2",
"sX c #E6CBC3",
"dX c #EBD3CB",
"fX c #F7D7CD",
"gX c #E7DCDA",
"hX c #F6DED6",
"jX c #F9E1D9",
"kX c #E8E5E5",
/* pixels */
"/ U P P I E ! ! ! ! ! ~ ^ ( ( ( ( ) ) ) ) ) ` J.J.J.K.J.` ` J.) ! D F D D D D D P ! ! ! E E E E E E ",
"~ P P I ! ! ! ! ! ! ~ ~ ~ P F ! ^ ( ) ) ) ` J.J.J.J.K.` ( ^ ~ U F A Z l l A D P I ! ! ! ~ ~ ! ! ! ! ",
"U F P ! ! ! ! ! ! ! ! ! P i $ h I ! ! E ! ~ ~ ^ ( ( ( ~ P A A A F F h $ % x P I I ! ! ! ~ ~ ~ ~ ! ~ ",
"F D P ! ! ! ! ! ! I P F Z 9 # i Z D Z h i i p f h h f i y t p x P P h # % Z I ! ! ! ! ! ~ ~ ~ ~ ~ ~ ",
"Z A F F P P I I P D A Z x p u h x Z x a ; ; ; ; ; ; ; ; ; ; 1 x F F x i p S I ! ~ ! ! ! ~ ~ ~ ~ ~ ~ ",
"Z F D F D F F D F F F k c }..X_ h i d 2.<.,.,.,.<.<.<.<.,.<.3.6 i h ( .X|.L l P ! ! E ! ~ ~ ~ ! ! ~ ",
"P P I I P P P P P P F i c %XpX.Xa ; 5 p.h.k.k.k.k.k.k.k.k.j.p.2.; ; }.pX3XT t K ! E E E ! ! ! ! ~ ~ ",
"I ! ! ! U U I I I ! L y c &XaXoX6 >.1.f.x.j.l.l.l.l.l.l.k.x.f.9.>.6 |.aXuXT 9 F I E E E ! ! ~ ~ ~ ~ ",
"! ! ! ! ! ! ! ! ! ! K t c %XaX.X8 1.h.g.d.x.z.v.v.z.j.j.x.g.g.x.p.8 }.pX3XB 9 K ! Y ! ! ~ ! ~ ~ ! I ",
"! ! ! ! ! ! ! ! ! I A t z oX3X}.8 p.h.d.t.d.Z.5X5XC.u.g.d.t.d.x.p.5 *.&X#Xz 9 L ! ! ! ! ! ! P P F Z ",
"~ ~ ! ! ! ! ! I P P F i h }.oXQ 8 p.h.a.r.y.Z.qXfXC.| u.y.t.a.x.p.5 T oX|.k t Z F F P P D Z Z C Z P ",
"~ ~ ! ! ! ! I P P P P x x T T d 3 p.j.h.d.t.r.=X=X:.;.w.t.d.s.j.p.5 s T T h f g g l l C C Z Z F P E ",
"~ ~ ! E I I P F P I P F S T m s 3 9.j.k.h.a.w.| ;.;.| w.y.h.k.j.p.5 a m c h f f f f k C Z P I I ! ! ",
"! ! I I P F F P I I L h c |.oX&.7 8.g.j.k.h.d.w.} } w.d.s.k.j.x.9.4 W oX Xz 9 f k l Z P I ! ~ ~ ~ ~ ",
"! I P P D P P I I I K i z #X8X|.7 6.d.f.s.i.a.6.5.] 6.a.i.s.f.d.e.7 N.7X1Xm $ g l Z P I ! ~ ! ! ! ! ",
"I P P P P I I I I I L u z #XiX X7 6.t.8.3.3.3.' 4 4 ' 2.3.3.8.t.q.7 B.8X1Xm $ h Z P I ! ~ ! ! ~ ! ! ",
"I D P I I I I Y ! ! P i z @X9X@X&.m.r.n.M.*.Q V M V V Q Q M.n.r.7.n.oX8X1Xm $ l P I ! ! ! ~ ~ ~ ~ ~ ",
"P D P I I I I I ! ! P u d OX9X4X,XV.n.#XuXuX6X,X*X*X-X3XuXuX$Xn.V.-X4X9X-Xm % Z I I ! ~ ~ ~ ~ ~ ~ ~ ",
"F D P I I I I I I I K t s V.<X9X8X|.Q uXkXkXaXsX0X0X9XaXkXkXuXN.B.4X9X2XXXs % F ! ! ! ! ~ ~ ~ ~ ^ ^ ",
"F P I I I P I I P P F t = m =.-X2XB._ uXkX&XoX8XfXfX9X+X%XkXuXN.*.<X<XV.M = 9 L ! ~ ! ! ~ ~ ~ ~ ~ ~ ",
"P P I I I I I I I I F t O , O.V.OX&.W 6XgX}.T 3XhXjX8XQ }.pXuX_ W XXV.O.2 O 9 P ! ~ ~ ~ ~ ~ ~ ~ ~ ~ ",
"I I I I I I I I I I K t : ] 6.b.O.d T 1XaX}.T 3XhXjX8XQ *.iX6XQ s V b.6.4.> 9 P ! ~ ~ ~ ~ ! ! ~ ! ! ",
"I I I I I I I I I F l % > 6.t.6.5 , B ,XsXoX|.8XhXjXsX XoX8X1XW , 4 5.t.q., % l L ~ ~ ~ ~ ! ! ~ ~ ~ ",
"I I I I I Y Y Y I f $ o > 6.0.d.p.2.V OX9X8X8XdXhXhXhXiX8X9X-XV 5 1.a.d.q., o $ p ! ~ ~ ~ ! ! ~ ~ ~ ",
"E E I I Y ! ~ ~ ! u O > ' 5.e.a.c.7.+.XX<X4X8XdXfXfXdX8X4X<XXX%.b.9.a.e.6.' , O t ! ! ! ~ ~ ~ ~ ~ ! ",
"! ! ! ! ! ! ~ ~ ~ i : 4.q.4.4 3 [ $.^.@.m B *.<X0X0X2XB.B m +.R.$.O.3 4 ] q.4.: 9 ! ~ ! ~ ~ ~ ~ ! ! ",
"! ! ! ! ~ ! ~ ~ ^ k 1 ] 6.b.V s q R.(.@.@ & b XX-X-XXXM & @ +.(.^.n s W n.7.4.1 p ! ! ! ~ ~ ~ ~ ! ~ ",
"! ! ! ! ~ ~ ~ ^ ( I z < N V.*X&.M Q.'.@.= q n b d d b n q - +.`.`.H *.1X@XO.6 c P ~ ~ ~ ~ ~ ! ! ! ~ ",
"~ ~ ~ ~ ~ ~ ~ ( / ! Z t d OX4XOX=.Q.Q.+.- w  .q - - q  .w - H W.Q.=.XX4X3X X_ L S ~ ~ ~ ~ ~ ! ! ! ~ ",
"^ ~ ~ ~ ~ ~ ~ ( ~ F Z t z #XsX9X-X=.b q q  ... . . . ... .w q v %.*X2X3XiXaX$Xz i ~ ~ ~ ~ ~ ~ ! ! ~ ",
"^ ~ ^ ~ ~ ^ ( ( ! D Z u c $XdXsX<X&.< [ { o. . . . . . .o.{ [ > m V.@X,XuXaX$Xh 9 ~ ~ ~ ~ ~ ~ ~ ~ ~ ",
"^ ^ ^ ^ ^ ~ ( ^ R F F i c &XgXiX#X*.2 5.q.{ w w v v n w { q.6.2 < b *.+X1X3XoXa t ~ ~ ~ ~ ~ ^ ^ ^ ^ ",
"^ ( ^ ^ ^ ^ ) ~ P D F y c &XkXgX3XN., ] 5.5.4.7.7.7.7.7.5.5.m.-.@.@.%.E.|.|._ k k ~ ^ ^ ^ ~ ~ ~ ~ ~ ",
"( ( ( ( ( ) ( ! D P F u c %XkXkXpX Xs < [ 6.t.f.z.z.f.y.q.{ %.;X'.(.R.H j s z F P ~ ~ ~ ~ ~ ! ! ~ ~ ",
"( ( ( ) ) ) / P A P P i a |.%X&X$XoXW.W.-.m.e.d.x.x.f.e.m.-.Q.eXrX[._.#.r = t F I ! ! E ! ~ ~ ^ ( ( ",
") ) ` J.` ( I A A I P i % j J W %.`.:X:X;X%.[ r.d.d.r.[ %.;XeXtXyXrX[./.#.0 9 F ! ~ ^ ~ ~ ^ ( ) ) ) ",
"J.K.K.) ~ U P D D I P i = r @.@.#._.>XrXeXE.G O.5.6.b.G E.wXyXyXtX>X].R.X.* 9 P ^ ( ( ( ( ( ( ) ) ) ",
"L.L.) ~ P P I P F E E p 0 #.^.^././.].>XeX{.H.G s < G H.!.wXtXtXrX].R.r * @ u E ( ( ( ( ) ) ) ) ) ) ",
") ) ~ P P U ! P F ~ ~ x j @.#.#.#.#.R._.'.{.F.S.A.A.S.F.Y.'.[.[._.R.X.* # u x ~ ( ( ( ) ) ) ) ) ) ) ",
"! I P P E ! ! P P ^ ^ ~ R j 0 * * 0 r R.).!.U.F.D.D.H.U.!.)././.R.r & o 9 S ~ ^ ( ( ) ` ` ) ) ) ) ) ",
"I I E ! ! ~ ! I E / ( ( ! i X .   X & ..T.~.!.U.I.I.U.!.~.T.#.#.X.* X X t P ( ( ( ) ) ) ` ` J.J.J.J.",
"! ! ! ~ ~ ! I ! ~ ) ) ) ~ p # X X X X & e T.).P.D.D.P.~.T.r * & & o X # i I / / ( ) ) ) ) ) J.K.J.` ",
"~ ! ! ~ ! I I ~ ) ) ) ) ^ F p $ X X X X & ..@.G.A.A.G.@.X.* X     X # i x ! ( / ) ) ) ) ` J.K.L.J.J.",
"~ ~ ! ! ! I ! ( ` ` ) ) ) ^ P i # X X X X @ @ + + + + @ @ o X X X o u F ~ ( ) ) ) ) ` J.J.K.L.L.L.` ",
"~ ~ ! ! I ! ( ` J.J.) ) ) ( ~ A p $ X X X     . . . X       X X # i x ! ( ( / ^ ^ / ( ) ` J.K.J.) ~ ",
"~ ~ ! I ! ( ` J.J.J.( ^ ^ ( ^ ~ P i # X X X X X . . X X X X X o t A ! ! ! ! P D D F F F P I ! ! P D ",
"! ! I ! ( ) J.` ) ( ^ ( ( ( ( ( ~ S k k h $ X X . . X X # 9 i i f Z D D D A Z A P P F A F D D D D D ",
"! ! ~ ( ` ` ) ( ^ ^ ^ ( ( ( ( ( ( ^ ( ) E 9 X X X X X X $ h C Z F F P P P P P I ! I P P P P P P I U ",
"! ^ ) ) ` ) ^ ~ ~ ^ ( ( ( ) ) ) ) ) ` ) I l f h l l l l x F F I ! ~ ~ ~ ~ ~ ~ ~ ! I I I Y ! ! ! ! ! ",
"( ) ` ` ` ) ~ ~ ^ ( ) ) ` ` J.K.K.K.J.~ D Z F ! / ^ ~ ~ ~ ~ ^ ( ( ( ( ( ( ( ( ^ ! P I ! ! ~ ^ ~ ! ! "
};
